<?xml version="1.0" encoding="utf-8"?>
<!-- Generator: Adobe Illustrator 22.0.0, SVG Export Plug-In . SVG Version: 6.00 Build 0)  -->
<svg version="1.1" id="Layer_1" xmlns="http://www.w3.org/2000/svg" xmlns:xlink="http://www.w3.org/1999/xlink" x="0px" y="0px"
	 viewBox="0 0 599 352" style="enable-background:new 0 0 599 352;" xml:space="preserve">
<style type="text/css">
	.st0{opacity:0.1;fill:#2C2A40;enable-background:new    ;}
	.st1{fill:#F9B587;}
	.st2{fill:#F39568;}
	.st3{fill:#2C2A40;}
	.st4{fill:#B0B1CA;}
	.st5{opacity:0.2;fill:#2C2A40;enable-background:new    ;}
	.st6{fill:#6C8C31;}
	.st7{fill:none;}
	.st8{fill:#5B5B6C;}
	.st9{fill:#A5C723;}
	.st10{fill:#B8E019;}
	.st11{fill:#FFFFFF;}
	.st12{fill:#00497B;}
	.st13{fill:#007BB0;}
</style>
<path class="st0" d="M452.1,124.2c-8.5-32.8-39.3-30.7-68.4-24.7c-15.7,3.3-37.7,7.8-60.7,1.1c-49.4-14.4-106.2-18-134.2,0
	s-44.9,39.7-36.7,69.9c8.1,30.2,28.6,57.5,11.1,73.7s-17.1,77.6,54.6,82.4c71.7,4.8,64.5-64,111.9-60.9
	c47.3,3.2,144.5,49.8,148.7,16c4.1-33.7-48.6-57.9-29.7-113.9C452.5,156.8,456,139.1,452.1,124.2z"/>
<g>
	<path class="st0" d="M287.3,70.5c0,0,1.8-11.8,7-11.3c1.4,0.1,2.4,1.6,3,3.1c0.4,0.9,1.8,0.8,2.1-0.1c1.3-4.8,4.1-12.1,8.5-12.1
		c4.4,0,4.6,8.4,4.3,13.4c-0.1,0.8,0.9,1.1,1.4,0.5c1.2-1.7,2.9-3.4,5-2.9c4.1,0.9,3,9.3,3,9.3L287.3,70.5L287.3,70.5z"/>
	<path class="st0" d="M98.7,181.1c0,0,1.8-11.8,7-11.3c1.4,0.1,2.4,1.6,3,3.1c0.4,0.9,1.8,0.8,2.1-0.1c1.3-4.8,4.1-12.1,8.5-12.1
		c4.4,0,4.6,8.4,4.3,13.4c-0.1,0.8,0.9,1.1,1.4,0.5c1.2-1.7,2.9-3.4,5-2.9c4.1,0.9,3,9.3,3,9.3L98.7,181.1L98.7,181.1z"/>
	<path class="st0" d="M461.5,134.1c0,0,1.8-11.8,7-11.3c1.4,0.1,2.4,1.6,3,3.1c0.4,0.9,1.8,0.8,2.1-0.1c1.3-4.8,4.1-12.1,8.5-12.1
		c4.4,0,4.6,8.4,4.3,13.4c-0.1,0.8,0.9,1.1,1.4,0.5c1.2-1.7,2.9-3.4,5-2.9c4.1,0.9,3,9.3,3,9.3L461.5,134.1L461.5,134.1z"/>
</g>
<g>
	<g>
		<g>
			<path class="st1" d="M352.6,164.6c0,0-5.4,4.7-13.1,7.6c0,0-4.4,2.8-10.2,6l0,0c-6.7,3.9-11.9,6.3-16.9,7.7
				c-4.1,1.1-7.8,2.5-10.6,3.8c-0.4,0.2-0.7,0.3-0.9,0.5l0,0c-2.7,1.2-4.4,2.2-4.4,2.2l-3.5-8.2c0,0,6.3-6.2,10-9.3
				c4.6-3.9,13-12.1,22.7-15.5l0,0c0.8-0.3,1.5-0.5,2.3-0.7c0,0,7.9-5.5,13.7-8.5c1.9-1,3.6-1.7,4.6-1.9
				C346.3,148.2,355.5,156.7,352.6,164.6z"/>
			<path class="st2" d="M330.9,163.2c0,0-3.3-3.7-5.2-4l0,0c0.8-0.3,1.5-0.5,2.3-0.7C328,158.6,330.6,161.2,330.9,163.2z"/>
			<path class="st2" d="M352.6,164.6c0,0-5.4,4.7-13.1,7.6c0,0-4.4,2.8-10.2,6c4-2.8,10.2-8.9,15-12.9c3.3-2.8,1.5-6.4,0.1-9.7
				c-0.6-1.4-2-3.9-2.6-5.4c0-0.1-0.1-0.1-0.2-0.1c1.9-1,3.6-1.7,4.6-1.9C346.3,148.2,355.5,156.7,352.6,164.6z"/>
		</g>
		<path class="st1" d="M300.6,187l1,9.8c0.1,1-0.3,2.1-1,2.7l-5.7,5.3c-0.7,0.7-1.7,0.6-2.4-0.1l0,0c-0.6-0.6-0.6-1.4-0.2-2.1
			l4.2-6.2l-0.8-1.9l-2.4,3.8l-2,3.7l-1,5.7c-0.2,0.8-0.9,1.4-1.8,1.2l0,0c-0.8-0.2-1.2-0.8-1.1-1.6l0.6-7l0.8-5.1l-2.1,5.2
			l-2.3,8.6c-0.2,0.6-0.7,0.9-1.2,1l0,0c-0.8,0.1-1.7-0.6-1.6-1.5l0.5-7.5l1.5-5.4l-4.5,7.5l-2.4,5.3c-0.3,0.6-0.9,0.8-1.5,0.7l0,0
			c-0.7-0.2-1-0.9-0.8-1.6l1.9-6.2l3.2-6.1l-3.1,4.8l-0.8,1.9c-0.2,0.4-0.7,0.6-1,0.4l0,0c-0.4-0.2-0.6-0.6-0.5-0.8l0.5-2.2l2.2-4.5
			l16.5-10.9C293,184.1,295.9,183.2,300.6,187z"/>
		<path class="st2" d="M301.6,189.7c-0.4,0.2-0.5,0.2-0.8,0.4l0,0c0,0-0.3-1.3-2.3-2.9C298.7,187.1,300.2,187.6,301.6,189.7z"/>
	</g>
	<path class="st3" d="M453.5,170.2c-0.4,0.7-1,1.1-1.9,1.4c0.7,10,0.4,18.6-1.1,22.4c-4.6,12-44.1,17.8-53.6,9.1
		c-9.5-8.7-14.6-65.9-1.9-74.9c9.5-6.8,29.6-7.8,39.1-7.9c4-0.1,7.6,2.4,9.1,6c2.4,5.9,4.5,15.4,6.1,25.3c0.6,0,1.1,0.1,1.8,0.3
		C453.1,152.7,454.5,168.4,453.5,170.2z"/>
	<g>
		<path class="st4" d="M381,288.2c0.4,1.4,0.9,2.8,2,4.1c0,0-4.1,1.7-8,3.3c-2.9,1.2-7.8,1.9-10.9,3.1c-0.8,0.3-1.4,0.7-2,1
			c-0.1,0.1-0.3,0.2-0.4,0.3c-1.7,1.6-10.8,5.4-13.7,6.1c-0.3,0.1-0.5,0.1-0.7,0.1c-0.8,0-2.1-0.4-2.8-1.5l0,0
			c-0.7-1-0.9-2.7-0.2-5.4c0.7-2.5,2.8-5.7,5-8.3c2.6-3.2,5.7-5.8,9.3-7.9c3.3-2,7.5-4.5,8.4-5.4c2.6-2.9,5-6.2,8.7-7.6
			c0.9-0.4,2.2-0.5,3.4-0.5c4,0.1,8.7,1.7,8.7,1.7S379,279.7,381,288.2z"/>
		<path class="st3" d="M379.3,269.7c-1.8,1.3-4.6,3.6-5.8,5.7c-1.8,3.1-8.8,6.4-11.8,8.4s-14.7,11.1-15.8,16.1c-1,4.3,1,6,2.3,6.4
			c-0.3,0.1-0.5,0.1-0.7,0.1c-1.6,0-4.5-1.3-3-7c0.7-2.5,2.8-5.7,5-8.3c2.6-3.2,5.7-5.8,9.3-7.9c3.3-2,7.5-4.5,8.4-5.4
			c2.6-2.9,5-6.2,8.7-7.6C376.7,269.7,377.9,269.7,379.3,269.7z"/>
		<path class="st5" d="M383,292.5c0,0-4.1,1.7-8,3.3c-2.9,1.2-7.8,1.9-10.9,3.1c-0.8,0.3-1.4,0.7-2,1c-0.1,0.1-0.3,0.2-0.4,0.3
			c-1.7,1.6-10.8,5.4-13.7,6.1c-0.3,0.1-0.5,0.1-0.7,0.1c-0.8,0-2.1-0.4-2.8-1.5l0,0c0,0,5.9-1.3,9-3.3c2-1.3,4.7-3.3,7.3-4.7
			c-0.6-1.1-1.4-2.5-2.7-4.3c0.1,0.1,2.2,1.6,4.1,3.7c1-0.5,2-0.8,2.8-0.8c3-0.3,12.6-3.5,16-7.1C381.4,289.6,382.1,291,383,292.5z"
			/>
	</g>
	<g>
		<path class="st4" d="M360.7,261.1c-0.1,4.6,0.9,8.5,0.8,10.1c-0.3,2.9-5.3,8.9-5.3,8.9c-0.4,3.4-3,8.1-6.6,10.6l0,0c0,0,0,0-0.1,0
			l-0.1,0.1c-2.1,1.4-4.4,2.1-6.9,1.2c-0.3-0.1-0.6-0.2-0.8-0.3c-4.5-2.2-5.9-17.9,0-24.2c5.7-6.1,8.2-18.6,13.9-20
			c5.7-1.4,8.7,1.1,8.7,1.1c-0.2,0.2-0.3,0.5-0.5,0.7C361.5,253.3,360.8,257.5,360.7,261.1z"/>
		<path class="st3" d="M364.4,248.5c-0.2,0.2-0.3,0.5-0.5,0.7c-0.6-0.2-5.9-2.1-9.3,0c-3.5,2.3-5.5,10.7-7.3,13.1
			c-1.9,2.4-7.6,10.8-7.8,14.1c-0.2,3.3-0.9,11.6,2.3,13.9c3,2.3,6.6,0.9,7.7,0.3c-2.4,1.6-5,2.2-7.6,0.9c-4.5-2.2-5.9-17.9,0-24.2
			c5.7-6.1,8.2-18.6,13.9-20C361.4,246.1,364.4,248.5,364.4,248.5z"/>
		<path class="st5" d="M361.4,271.2c-0.3,2.7-4.5,7.9-5.2,8.8l-0.1,0.1l0,0c-0.4,3.4-3,8.1-6.6,10.6l0,0c0,0,0,0-0.1,0l-0.1,0.1
			c-2.1,1.4-4.4,2.1-6.9,1.2c0.4-0.2,0.8-0.4,1.4-0.5c4.1-0.8,7.5-6.5,8.3-9.5c0.2-0.9,0.9-2.1,1.9-3.3c-1.4-0.8-3.2-1.7-4.7-1.7
			c0,0,1.9-0.7,5.3,0.8c2.1-2.6,4.7-5.5,5-6.7c0.5-2,0.8-10.1,0.8-10.1C360.6,265.8,361.6,269.6,361.4,271.2z"/>
	</g>
	<g>
		<path class="st1" d="M479.7,99.6l-11.6,6.5l-11.8,6.5c0,0-4.7-10.6-0.5-17.3c0,0,0.9-0.6,2.4-1.3c1-0.6,2.4-1.2,3.7-1.8
			c0.8-0.4,1.5-0.7,2.3-0.9c0,0,1.1-3.9,3.1-8.2c1-2.3,1.2-3.9,1-4.8c-0.1-0.8-0.4-1.2-0.4-1.2s6-3,9.5-6
			C477.6,70.9,485.1,88,479.7,99.6z"/>
		<path class="st2" d="M470.2,95.9c0,0-5,1.2-8.2-3.8c0.8-0.4,1.5-0.7,2.3-0.9C464.3,91.3,466.5,95.3,470.2,95.9z"/>
		<path class="st2" d="M468.1,106.1l-11.8,6.5c0,0-4.7-10.6-0.5-17.3c0,0,0.9-0.6,2.4-1.3c0,0,0.1,9,1.4,11.3
			C460.9,107.6,465,106.8,468.1,106.1z"/>
		<g>
			<path class="st1" d="M477.6,70.9c-1.4,1.6-7.5,5.9-8.4,6.3c-0.3,0.2-0.8,0-1.1-0.4c-0.4,0-3.1,0.1-4.6-0.6
				c-0.8-0.4-0.8-1.5-0.6-2.7c-2-0.5-5.8-3.5-5.7-6.4c0.1-3.1,3.4-3.4,3.4-3.4c0.1-3.6,3.5-3,3.5-3c0.2-1.6,3-2.3,3-2.3
				c0.3-1.3,2.2-1.6,3.3-1c1.1,0.6,7.6,8.1,7.9,9.5C478.4,68.5,477.6,70.9,477.6,70.9z"/>
			<path class="st2" d="M467.8,71.9c0.5,1.8-1,2.1-1,2.1c0.3-0.2,0.3-1,0.2-1.7c0,0,0-0.5-0.2-1l0,0c-0.2-0.6-0.6-1.3-1.3-1.6
				c-1.3-0.6-2-0.2-2-0.2l-2.7-3.7c1.4,0.8,3.3,2.8,3.3,2.8c2.4-0.1,3.3,1.7,3.6,2.6c0.5,0,1-0.3,1.2-0.9c0.4-1.3-0.5-2.5-0.5-2.5
				l-3.8-5c0,0,5.1,4.8,5.3,6.6C470,72,467.8,71.9,467.8,71.9z"/>
			<path class="st2" d="M468.4,61.2c0,0,3.3,4,3.8,5.1c0.5,1.2-0.3,2.4-1.1,2.6c-0.8,0.2-1.4-0.2-1.4-0.2V70c0,0,3.4,0.6,3.4-2.6
				C473,65.7,468.4,61.2,468.4,61.2z"/>
			<path class="st2" d="M472.8,66.6c0,0,0.8,0.8,1.8,0.5c0.9-0.3,1.2-0.9,0.9-1.6c0,0,0.6,0.6,0.1,1.4c-0.7,1.1-2.4,0.9-2.8,0.8
				V66.6z"/>
		</g>
		<path class="st2" d="M472.2,76.4c0,0-1,2-3.8,1.8c-0.1-0.8-0.4-1.2-0.4-1.2S470.3,77.1,472.2,76.4z"/>
	</g>
	<path class="st6" d="M433.5,228.2c0,0-3.4-7.4-2.8-11.8c0.7-4.2,6.4,2.4,7.2,4.2C438.6,222.4,437.5,227.4,433.5,228.2z"/>
	<path class="st3" d="M390.2,271.9c-3.4,1.5-7,2.4-9.9,2.4c3.1-2.3,6.8-3.1,6.8-3.1C388,271.4,389.1,271.5,390.2,271.9z"/>
	<g>
		<path class="st7" d="M403.5,248.5c-0.7,2.9,0.1,6.5-2,13.1c-1.5,4.5-6.1,8.1-11.3,10.3c4.6,1.3,9.5,2.4,9.5,2.4
			c8-0.3,23.1,3,23.1,3C408.6,264.1,403.5,248.5,403.5,248.5z"/>
		<path class="st3" d="M456.7,288.7c-0.7-13.5-22.8-47.8-26.3-73.9l-13.9-5c-1.9-0.6-1-0.2-3.2-0.8c0,0-32.9-17-47.6,5.4
			c0,0-1.9,7.9,2.6,16.3c1.9,3.5,3.3,14.2,1.9,16.4c0,0-1.9,0.2-5.8,1.5c-2.4,0.8-6.3,2.4-8.9,3.5c-3.2,1.3-5.7,4.1-6.6,7.5
			c-0.5,1.8-0.5,3.8,0.3,6c2.4,7.2,8.7,7.9,12.7,7.3c0,0,8.7,0,15.5,1.2c0.8,0.2,1.8,0.2,2.8,0.2c-1.9,1.4-3.6,3.3-4.1,5.8
			c-1.4,6.8,5.2,11.8,5.2,11.8s0.7,1.4,5.9,1.1c5.3-0.3,5.3-1.7,9.6,0c4.3,1.8,34.9,14.3,44.9,14.8
			C452,308.4,457.4,302.2,456.7,288.7z M399.6,274.3c0,0-4.9-1.1-9.5-2.4c5.1-2.2,9.8-5.8,11.3-10.3c2.2-6.6,1.3-10.2,2-13.1
			c0,0,5.1,15.5,19.3,28.8C422.7,277.3,407.6,274.1,399.6,274.3z"/>
		<g>
			<g>
				<path class="st8" d="M365.6,251.8c-0.5,0.1-0.9,0.2-1.4,0.3l0.2,0.7c0.5-0.1,0.9-0.2,1.4-0.3c0.5-0.1,0.9-0.2,1.4-0.3l-0.2-0.7
					C366.5,251.6,366.1,251.7,365.6,251.8z"/>
				<path class="st8" d="M351.1,256.7l0.4,0.7c0.8-0.5,1.7-0.9,2.5-1.4l-0.3-0.7C352.8,255.8,351.9,256.3,351.1,256.7z"/>
				<path class="st8" d="M359.7,253.2l0.2,0.7c0.8-0.2,1.8-0.5,2.8-0.7l-0.2-0.7C361.4,252.7,360.5,252.9,359.7,253.2z"/>
				<path class="st8" d="M374.8,241.6h0.8c-0.1-0.9-0.2-2-0.3-2.9l-0.7,0.1C374.6,239.7,374.7,240.6,374.8,241.6z"/>
				<path class="st8" d="M369,212.2h-0.8c-0.1,0.9-0.1,2-0.1,2.9h0.8C368.9,214.2,368.9,213.2,369,212.2z"/>
				<path class="st8" d="M374.3,237.1l0.7-0.1c-0.2-1-0.4-2-0.7-2.9l-0.7,0.2C373.9,235.2,374.1,236.1,374.3,237.1z"/>
				<path class="st8" d="M355.1,254.6l0.3,0.7c0.8-0.4,1.7-0.7,2.7-0.9l-0.2-0.7C356.9,253.9,356,254.3,355.1,254.6z"/>
				<path class="st8" d="M374,249.1c-0.2,0.3-0.5,0.5-0.9,0.8l0.3,0.7c0.6-0.3,1-0.6,1.2-0.9c0.3-0.4,0.5-0.8,0.7-1.5l-0.7-0.2
					C374.4,248.5,374.2,248.9,374,249.1z"/>
				<path class="st8" d="M373.8,232.4c-0.4-1-0.8-1.9-1.1-2.7l-0.7,0.4c0.4,0.8,0.8,1.7,1.1,2.6L373.8,232.4z"/>
				<path class="st8" d="M368.9,216.8h-0.8c0,1,0.1,2,0.2,2.9l0.8-0.1C368.9,218.8,368.9,217.8,368.9,216.8z"/>
				<path class="st8" d="M375.6,243.3h-0.8c0,0.1,0,0.2,0,0.3c0,0.9,0,1.8-0.1,2.5l0.8,0.1c0.1-0.8,0.1-1.7,0.1-2.6
					C375.6,243.6,375.6,243.4,375.6,243.3z"/>
				<path class="st8" d="M369.8,224.1c-0.3-0.8-0.5-1.8-0.6-2.8l-0.7,0.1c0.2,1,0.4,2,0.6,2.9L369.8,224.1z"/>
				<path class="st8" d="M370.3,225.7l-0.7,0.3c0.4,0.9,0.8,1.7,1.3,2.4c0.1,0.1,0.1,0.2,0.2,0.2l0.6-0.4c-0.1-0.1-0.1-0.2-0.2-0.3
					C371.1,227.3,370.7,226.6,370.3,225.7z"/>
				<path class="st8" d="M368.7,251.1l0.2,0.7c1.2-0.3,2.1-0.5,2.8-0.8l-0.2-0.7C370.8,250.6,369.8,250.8,368.7,251.1z"/>
			</g>
		</g>
		<g>
			<g>
				<path class="st8" d="M405.5,247c-0.5-0.8-0.8-1.2-0.8-1.2l0.6-0.4c0,0,0.3,0.5,0.8,1.2L405.5,247z"/>
			</g>
			<g>
				<path class="st8" d="M391.9,275.1c0.8,0.2,1.7,0.4,2.7,0.7l0.2-0.7c-1.1-0.3-2-0.6-2.7-0.7L391.9,275.1z"/>
				<path class="st8" d="M387.6,273.8l-0.1,0.7c0.8,0.1,1.3,0.2,1.9,0.2c0.2,0,0.5,0.1,0.8,0.1l0.1-0.7c-0.4-0.1-0.8-0.1-0.9-0.1
					C389,273.9,388.3,273.9,387.6,273.8z"/>
				<path class="st8" d="M396.2,276.3c0.8,0.2,1.8,0.5,2.7,0.8l0.2-0.7c-0.9-0.3-1.9-0.6-2.7-0.8L396.2,276.3z"/>
				
					<rect x="401.6" y="276.1" transform="matrix(0.2701 -0.9628 0.9628 0.2701 26.2402 589.575)" class="st8" width="0.8" height="2.8"/>
				<path class="st8" d="M404.9,278.7c0.9,0.3,1.8,0.5,2.7,0.8l0.2-0.7c-0.9-0.3-1.8-0.5-2.7-0.8L404.9,278.7z"/>
				<path class="st8" d="M416.1,261.5c-0.6-0.8-1.1-1.5-1.6-2.4l-0.6,0.4c0.6,0.8,1,1.5,1.6,2.4L416.1,261.5z"/>
				<path class="st8" d="M429.9,279.3c-0.2-0.8-0.7-1.6-1.5-2.5l-0.6,0.5c0.8,0.8,1.2,1.6,1.3,2.3L429.9,279.3z"/>
				<path class="st8" d="M418.7,265.1c-0.6-0.8-1.1-1.5-1.7-2.3l-0.6,0.4c0.6,0.8,1.1,1.5,1.7,2.3L418.7,265.1z"/>
				<path class="st8" d="M383.1,273.5l-0.1,0.3c1,0.2,2,0.4,2.8,0.5l0.1-0.7c-0.4-0.1-0.8-0.2-1.3-0.2
					C384.2,273.4,383.7,273.4,383.1,273.5z"/>
				<path class="st8" d="M406.3,248.5c0.5,0.7,0.9,1.5,1.6,2.4l0.6-0.4c-0.6-0.8-1.1-1.7-1.6-2.4L406.3,248.5z"/>
				<path class="st8" d="M423.5,282.3c-0.3,0-0.6,0-0.9-0.1l-0.1,0.8c0.4,0,0.7,0.1,0.9,0.1c0.1,0,0.1,0,0.2,0
					c0.7,0,1.3-0.1,1.8-0.1l-0.1-0.8C424.7,282.3,424.1,282.3,423.5,282.3z"/>
				<path class="st8" d="M426.8,275.1c-0.5-0.5-1-1-1.6-1.7l-0.6,0.5c0.6,0.7,1.1,1.2,1.6,1.7c0.1,0.1,0.2,0.2,0.4,0.4l0.5-0.5
					C427.1,275.4,426.9,275.2,426.8,275.1z"/>
				<path class="st8" d="M424.2,272.2c-0.6-0.7-1.1-1.4-1.8-2.2l-0.6,0.5c0.7,0.8,1.2,1.5,1.8,2.2L424.2,272.2z"/>
				<path class="st8" d="M419.1,266.9c0.6,0.8,1.1,1.6,1.7,2.3l0.6-0.5c-0.6-0.7-1.1-1.5-1.7-2.3L419.1,266.9z"/>
				<path class="st8" d="M426.8,281.9l0.2,0.7c1.3-0.3,2.2-0.8,2.6-1.5l-0.6-0.4C428.6,281.2,427.9,281.6,426.8,281.9z"/>
				<path class="st8" d="M409.2,279.9c0.9,0.3,1.9,0.5,2.7,0.8l0.2-0.7c-0.8-0.3-1.8-0.5-2.7-0.8L409.2,279.9z"/>
				<path class="st8" d="M417.9,282.1c1,0.3,2,0.5,2.8,0.6l0.1-0.7c-0.8-0.1-1.7-0.4-2.7-0.6L417.9,282.1z"/>
				<path class="st8" d="M411.4,255.9c0.6,0.8,1,1.5,1.6,2.4l0.6-0.4c-0.6-0.8-1.1-1.6-1.6-2.4L411.4,255.9z"/>
				<path class="st8" d="M411,254.1c-0.6-0.8-1.1-1.6-1.6-2.4l-0.6,0.4c0.5,0.8,1,1.5,1.6,2.4L411,254.1z"/>
				<path class="st8" d="M413.6,281.1c0.9,0.3,1.9,0.5,2.7,0.7l0.2-0.7c-0.8-0.2-1.8-0.5-2.7-0.7L413.6,281.1z"/>
			</g>
		</g>
	</g>
	<path class="st3" d="M390.2,271.9c-3.4,1.5-7,2.4-9.9,2.4c3.1-2.3,6.8-3.1,6.8-3.1C388,271.4,389.1,271.5,390.2,271.9z"/>
	<g>
		<path class="st9" d="M457.5,114.4c-0.1,4.5-0.3,7.7-0.3,7.7c-0.8,0.3-1.7,0.7-2.6,1.1c-6.1,3.1-13.8,9.6-15.6,16.2
			c-0.8,2.6-1,8-1.2,14.2c-0.1,5-0.1,10.4,0,15.2c0,0.3,0,0.5,0,0.8c0.1,6,0.3,10.9,0.3,12.3c0,3.9-0.8,15.4-0.9,20.3
			c-0.2,5,1.2,10.3,1.9,18.6c0.7,8.4-5.5,7.3-5.5,7.3c5.9-2.4,2.8-9.5-0.9-11c-0.6-0.2-1.2-0.5-2-0.8l0,0c-9-3.2-29.9-8.6-40.5-10.1
			c-15.8-2.4-24.4,8.1-24.4,8.1s3.1-17.2,5.7-20.6c2.6-3.4,4.1-14.6,5.3-19.2c0.2-0.7,0.2-1.4,0.3-2.3c0.2-4.1-0.8-10.7-1.3-14.1
			c-0.2-1.3-0.4-2.2-0.4-2.2c-1.6,2.6-12,8.1-17.3,10.7c-1.9,0.9-3.1,1.5-3.1,1.5l-4.4-6.7l-8.8-13.3c0,0,0.6-0.6,2.4-2
			c1.3-1,3.2-2.4,5.9-4.5c6.7-5,14.6-13.9,17.5-15.4c2.9-1.4,3.4-1.2,7.3-5c2.7-2.6,12.5-5.7,18.2-7.4c2.4-0.7,4.1-1.1,4.1-1.1
			c7.5,2.3,13.1-0.8,13.1-0.8s2.1-1.3,4.9-3c4.5-2.7,11-6.4,13.7-6.6c3.4-0.3,18-4.3,24.2-6.1c1.7-0.5,2.7-0.8,2.7-0.8
			C457.3,100.8,457.6,108.6,457.5,114.4z"/>
		<g>
			<path class="st3" d="M403.3,119.8c-6.7,0.4-9.5-4.6-10.2-5.9c2.4-0.7,4.1-1.1,4.1-1.1c7.5,2.3,13.1-0.8,13.1-0.8s2.1-1.3,4.9-3
				C416,115.7,410.8,119.5,403.3,119.8z"/>
			<path class="st3" d="M358.1,166.7c-1.9,0.9-3.1,1.5-3.1,1.5l-13.2-20c0,0,0.6-0.6,2.4-2L358.1,166.7z"/>
			<path class="st3" d="M457.2,122.1c-0.8,0.3-1.7,0.7-2.6,1.1c1.1-11.2-0.7-22.6-1.5-27.1c1.7-0.5,2.7-0.8,2.7-0.8
				C458.5,105,457.2,122.1,457.2,122.1z"/>
		</g>
		<path class="st10" d="M437.8,168.8c-10.8-4.7-37.3-13.3-60.7,3.4c0.2-4.1-0.8-10.7-1.3-14.1c3.6-2.3,20.5-12.4,36.8-11.9
			c11.2,0.4,20,4.4,25.2,7.4C437.7,158.7,437.7,164,437.8,168.8z"/>
	</g>
	<g>
		<path class="st3" d="M385.4,75.4c0,0-4.3-0.9-4.8,4.1c-0.5,4.2,5,5.8,5,5.8S387.3,78.2,385.4,75.4z"/>
		<path class="st3" d="M387.5,82.7c0,0-4.3-0.9-4.8,4.1c-0.5,4.2,5,5.8,5,5.8S389.3,85.3,387.5,82.7z"/>
		<path class="st3" d="M384.6,76.5c0,0-6.9-2.6-4.5-10.2c2.4-7.5,11.2-4.5,11.2-4.5s0.3-5.3,6.2-5.6c5.8-0.3,8,4.4,8,4.4
			s4-4,8.9-2.7c4.8,1.2,6.5,7.1,5,9.8c0,0,3.1-0.6,5.4,3c2.4,3.6,2.9,8.9,0,10.8c0,0,3.5,3.8,1.6,9c-1.9,5.1-7,5-7,5
			s0.9,6.7-5.6,8.3s-5.8-4.1-5.8-4.1S396.7,73.5,384.6,76.5z"/>
		<g>
			<path class="st1" d="M411.7,106.5l0.9,4.6c0.3,1.1-0.2,2.4-1.2,3.1c-8.3,6-14.7,1.9-16-0.2c1-0.9,18.8-17.9,19.1-27.4
				C414.6,86.7,416.7,98.5,411.7,106.5z"/>
			<path class="st1" d="M385.1,89.3c-0.4,1.3-0.5,2.7-0.4,4.1c0.1,1.2,0.4,2.4,0.8,3.5l2.9,7.5c1.1,2.8,3.9,4.6,6.9,4.5
				c3.5-0.2,8-0.9,12.1-3.6c7.5-5,7.5-16.5,7.5-16.5s-0.7-11.7-10.3-16.1c-9.7-4.4-19.6,0.8-19.6,0.8l-1.1,8.2
				c-0.1,0.5-0.1,0.9-0.1,1.4c0,1.5,0.2,3.1,0.7,4.5L385.1,89.3z"/>
			<path class="st3" d="M393,80.6c0,0,5.5-5.3,9.2-0.6l-0.7,1.2c0,0-3.8-3.3-8.2,0.8L393,80.6z"/>
			<path class="st2" d="M385.1,89.3c-0.4,1.3-0.5,2.7-0.4,4.1c1.1-0.8,3.5-1.5,8.3-0.8c0,0-2.5-2.1-5.1-2.1c-0.7,0-1.1-0.7-0.9-1.3
				l1.4-4.3c0,0-0.5-0.8-1.6-1.2c-0.7-0.2-2-0.5-3-0.6c0,1.5,0.2,3.1,0.7,4.5L385.1,89.3z"/>
			<path class="st3" d="M384.1,81.8c1.9,0.1,3.3,0.7,3.3,0.7l0.2,1.4c-1.3-0.5-2.4-0.6-3.5-0.6c-0.5,0-0.9-0.4-0.8-0.8l0,0
				C383.2,82,383.6,81.7,384.1,81.8z"/>
			<path class="st11" d="M387.3,96l12.9-1.2c0,0-1.5,7-8.4,6.8C386.4,101.5,387.3,96,387.3,96z"/>
			<path class="st2" d="M396.1,108.7c0,0,8-1,12.3-12.2c0,0,2,4.1-0.4,10.1c-2.4,5.9-12.6,7.4-12.6,7.4L396.1,108.7z"/>
			<path class="st1" d="M411.6,86.9c0,0,2.4-4.6,6-2.5s1.6,12.7-3.6,10.7C408.8,93.1,411.6,86.9,411.6,86.9z"/>
		</g>
		<path class="st3" d="M394.6,84.8c0,0,0.8-2.4,2.8-2.4c3,0,3.6,2.5,3.6,2.5S398.1,80.9,394.6,84.8z"/>
		<path class="st3" d="M387.8,86.4c0,0-2.1-2.4-3.3,0.6C384.5,86.8,385.9,85,387.8,86.4z"/>
		<path class="st3" d="M384.6,76.5c0,0,3.5,0.8,6.5-1.1c2.9-2.1,2.3-3.9,2.3-3.9s1.2,3,5.2,2.7c4.1-0.3,4.5-1.4,4.5-1.4
			s-0.2,4.5,3.1,5.2c3.3,0.7,5.3-2,5.3-2s-14.6-12.8-19.6-9.4C386.9,70,382.6,71.8,384.6,76.5z"/>
		<path class="st3" d="M409.8,76.6c0,0-2,3.9,1.4,6c0,0-0.1,3.3-1.2,6h2.5c0,0,1.9-3.3,1.7-6.1S414,75.4,409.8,76.6z"/>
	</g>
	<path class="st2" d="M477.6,70.9c0,0-0.6,1.5-1.4,2.1c0,0,1.4-0.1,1.9-0.8L477.6,70.9z"/>
	<path class="st9" d="M349.5,290.8C349.6,290.7,349.6,290.7,349.5,290.8L349.5,290.8C349.6,290.7,349.6,290.7,349.5,290.8z"/>
	<path class="st5" d="M430.6,216.4c-9-3.2-29.9-8.6-40.5-10.1c-15.8-2.4-24.4,8.1-24.4,8.1s3.1-17.2,5.7-20.6
		c2.6-3.4,4.1-14.6,5.3-19.2c0.2-0.7,0.2-1.4,0.3-2.3c0.2-4.1-0.8-10.7-1.3-14.1c-0.2-1.3-0.4-2.2-0.4-2.2
		c-1.6,2.6-12,8.1-17.3,10.7c-1.9,0.9-3.1,1.5-3.1,1.5l-4.4-6.7l-0.6-2.9c0,0,11.6-6.3,27.5-14.9c0,0,7.2,9,7.1,19.5
		c-0.2,18.7-2.8,31.3,8.7,35.6C404.3,203,429.1,215.6,430.6,216.4z"/>
	<path class="st5" d="M457.5,114.4c-0.1,4.5-0.3,7.7-0.3,7.7c-0.8,0.3-1.7,0.7-2.6,1.1c-6.1,3.1-13.8,9.6-15.6,16.2
		c-0.8,2.6-1,8-1.2,14.2c-0.1,5-0.1,10.4,0,15.2c0,0.3,0,0.5,0,0.8c0,0-4.1-28-1.8-36.2C438.3,125.3,457.1,114.6,457.5,114.4z"/>
	<path class="st3" d="M380.5,121.1c-3.4,20.2-2.7,44-2.7,44c1.2,6.3-1.4,11.6-1.4,11.6c-12.9-13.9-4.1-55.6,0.8-64
		c5.9-10.4,14.5,1.8,14.5,1.8l-4.4,1.4c0,0-1.5-2.2-3.4-1.7C381.9,114.6,380.5,121.1,380.5,121.1z"/>
	<path class="st3" d="M417,107.8c0,0,1.3-10.2,8.8-10.5c11.8-0.4,14.7,30.5,15.6,47.3s-3.7,20.1-3.7,20.1l-0.2-9.5
		c0,0-6.1-41.2-9.1-48.4c-3.3-7.9-6.1-4.1-9.1,0l-2.6,1.2"/>
</g>
<g>
	<g>
		<path class="st1" d="M159.6,97.2c-19-4.9-33.9-22.9-37.9-27.2c-0.4-0.4-0.8-1-1.1-1.9l0,0c-3.8-7.8-9.9-33.5-11.2-39.4
			c-0.1-0.4-0.2-0.7-0.2-0.9c0-0.2-0.1-0.3-0.1-0.3l10.8-4.7c0,0,0.8,10.4,6.1,18.8c5.2,8.4,10,21.7,10,21.7
			c10.2,5,21.1,14.3,21.1,14.3C162.8,89.5,159.6,97.2,159.6,97.2z"/>
		<path class="st2" d="M159.6,97.2c-19-4.9-33.9-22.9-37.9-27.2c-0.4-0.4-0.8-1-1.1-1.9c0.2,0.2,14.3,12.2,19.6,15.4
			c5.4,3.1,11.4,5.8,14.3,3.8c3-2.1,3.8-6,2.6-9.6C162.8,89.5,159.6,97.2,159.6,97.2z"/>
		<g>
			<path class="st1" d="M109.8,28.1c2.1-0.1,9.3-2,10.3-2.4c0.3-0.2,0.5-0.6,0.5-1.1c0.3-0.3,2.2-2.4,2.5-4c0.3-0.8-0.7-1.6-1.7-2.3
				c0.9-1.8,1-6.7-1.1-8.6c-2.4-2-4.8,0.5-4.8,0.5c-2.8-2.3-4.5,0.8-4.5,0.8c-1.3-0.8-3.7,0.8-3.7,0.8c-1.2-0.7-2.5,0.7-2.9,1.8
				c-0.3,1.2,1.3,11.1,2.2,12.2C107.3,27.1,109.8,28.1,109.8,28.1z"/>
			<path class="st2" d="M116.7,21.2c1,1.5,2.3,0.5,2.3,0.5c-0.4,0.1-0.9-0.5-1.4-0.9c0,0-0.4-0.3-0.7-0.8l0,0
				c-0.4-0.6-0.7-1.2-0.4-2.1c0.4-1.4,1.1-1.6,1.1-1.6l-1-4.4c-0.3,1.6,0.1,4.3,0.1,4.3c-1.6,1.8-0.8,3.6-0.3,4.4
				c-0.4,0.4-0.8,0.6-1.4,0.4c-1.2-0.6-1.7-2.1-1.7-2.1l-1.4-6c0,0,0.4,7,1.7,8.3C115.3,22.9,116.7,21.2,116.7,21.2z"/>
			<path class="st2" d="M108.3,14.8c0,0,0.9,5.1,1.5,6.1c0.6,1.1,2,1.3,2.7,0.8c0.8-0.6,0.8-1.2,0.8-1.2l0.9,0.8
				c0,0-1.8,2.9-4.2,0.8C108.6,21.2,108.3,14.8,108.3,14.8z"/>
			<path class="st2" d="M109.5,21.5c0,0,0.1,1.1-0.8,1.7s-1.5,0.3-1.9-0.3c0,0,0.1,0.8,1,1c1.3,0.2,2.2-1.2,2.4-1.7L109.5,21.5z"/>
		</g>
		<path class="st2" d="M111.6,28.1c0,0-0.9,0.8-2.4,0.7c-0.1-0.4-0.2-0.7-0.2-0.9C109.1,27.8,110.2,28.1,111.6,28.1z"/>
		<path class="st2" d="M120.2,25.4c0,0-1.1,1.1-2.2,1.4c0,0,1.3,0.1,2.3-0.6L120.2,25.4z"/>
		<path class="st2" d="M136.1,63.2c0,0-3.7,3-5.7,3.4c0,0,4.1,1.4,7.6-2.4L136.1,63.2z"/>
	</g>
	<path class="st3" d="M147.6,155.3c0.5,0.7,1.2,0.9,2.1,1.1c0.7,10,2,18.5,4,22.1c6.1,11.2,46,12,54.3,2.2s6.1-67.2-7.7-74.5
		c-10.4-5.5-30.3-4-39.8-2.9c-4,0.5-7.3,3.3-8.3,7.2c-1.6,6.2-2.5,15.7-2.8,25.9c-0.6,0.1-1.1,0.3-1.7,0.6
		C145.8,137.9,146.5,153.6,147.6,155.3z"/>
	<path class="st1" d="M297.2,99.6c0,0-3,11.3-7.8,23.8c-0.8,1.9-1.5,3.8-2.3,5.7c-3.3,7.8-7.2,15.5-11.3,20.7
		c-2.3,2.8-4.5,4.9-6.9,5.9c0,0-6.8,0.9-11.5-1.9c-4.7-2.8-23.3-12-25.5-15.9c0,0,7.2-10.1,13.9-11c0,0,2.5,1.3,6,3.4
		c3.9,2.3,8.9,5.4,13.3,8.7c0.5,0.3,0.8,0.7,1.2,0.9c0,0,0.4-0.7,0.9-1.9c1.6-3,5-9.2,9.1-15.8c0.8-1.4,1.8-2.8,2.7-4.2
		c0.2-0.3,0.4-0.7,0.7-0.9c7.3-10.9,8.3-18.8,8.3-18.8S295.2,97.5,297.2,99.6z"/>
	<path class="st2" d="M289.4,123.4c-0.8,1.9-1.5,3.8-2.3,5.7l-10.6-6.9c0.8-1.4,1.8-2.8,2.7-4.2L289.4,123.4z"/>
	<path class="st2" d="M275.7,149.9c-2.3,2.8-4.5,4.9-6.9,5.9c0,0-6.8,0.9-11.5-1.9c-4.7-2.8-23.3-12-25.5-15.9c0,0,7.2-10.1,13.9-11
		c0,0,2.5,1.3,6,3.4c-0.4,1.4-2.1,6.5-5,9c-3.4,2.9,4.5,9.5,11.4,12.4C265,154.7,269.8,154.6,275.7,149.9z"/>
	<path class="st2" d="M266,147.6c0.8-3.2-0.9-8.7-0.9-8.7c0.5,0.3,0.8,0.7,1.2,0.9c0,0,0.4-0.7,0.9-1.9C268,145,266,147.6,266,147.6
		z"/>
	<path class="st4" d="M234.4,315.5c-6.3-3.7-8.6-7.3-12.3-13.6c-2.3-3.8-4.3-6.9-5.7-8.9c-0.9-1.3-1-3.1-0.3-4.5
		c0.1-0.1,0.1-0.2,0.2-0.4c1.5-2.8,4-6.8,6.1-6.9l2.4,1.3l8.3,4.5c0,0,3.7,8.4,3.5,12c-0.1,3.2,6,10.6,7.9,14.7
		c0.2,0.4,0.3,0.7,0.4,0.9c0.1,0.2,0.1,0.4,0.1,0.6C245.5,319,240.7,319.2,234.4,315.5z"/>
	<path class="st3" d="M234.4,315.5c-6.3-3.7-8.6-7.3-12.3-13.6c-2.3-3.8-4.3-6.9-5.7-8.9c-0.9-1.3-1-3.1-0.3-4.5
		c0.1-0.1,0.1-0.2,0.2-0.4c0.4,1.5,1.3,4.8,3.5,7.3c2.8,3.3,7.1,10.8,8,12.2c1,1.4,8,7.5,12.5,8.4c3.6,0.8,4.2,0,4.5-1.2
		c0.1,0.2,0.1,0.4,0.1,0.6C245.5,319,240.7,319.2,234.4,315.5z"/>
	<path class="st5" d="M234.4,315.5c-6.3-3.7-8.6-7.3-12.3-13.6c-2.3-3.8-4.3-6.9-5.7-8.9c-0.9-1.3-1-3.1-0.3-4.5
		c0.1-0.1,0.1-0.2,0.2-0.4c1.5-2.8,4-6.8,6.1-6.9l2.4,1.3c0,0-4.7,4.2-3.2,8.9c1.5,4.7,6.5,11.7,9.1,14.8c2.5,3,8.2,8.2,13.8,7.5
		c0.2,0.4,0.3,0.7,0.4,0.9c0.1,0.2,0.1,0.4,0.1,0.6C245.5,319,240.7,319.2,234.4,315.5z"/>
	<path class="st4" d="M232.2,337.1c-0.2,4.2-3.1,8-9.7,7c-7.4-1.2-9.5-7.4-11.2-11.2c-1.7-3.8-5.8-17-7.6-22.1
		c-0.9-2.8-0.7-5.9-0.2-8.2c0.4-1.9,0.8-3.2,0.8-3.2l2.6,0.4l15.2,2.3c0,0,2.8,6,3.5,12.8c0.6,5.8,4.4,13.4,5.9,18.4l0,0
		c0.3,0.8,0.5,1.6,0.6,2.3C232.2,336,232.2,336.6,232.2,337.1z"/>
	<path class="st5" d="M232.2,337.1c-0.2,4.2-3.1,8-9.7,7c-7.4-1.2-9.5-7.4-11.2-11.2c-1.7-3.8-5.8-17-7.6-22.1
		c-0.9-2.8-0.7-5.9-0.2-8.2c0.4-1.9,0.8-3.2,0.8-3.2l2.6,0.4c-0.3,2.6,0.8,10.1,3,14c2.6,5,4.5,15.9,9,20.8
		c4.5,4.9,12.7,5.7,12.5-1.3c0.3,0.8,0.5,1.6,0.6,2.3C232.2,336,232.2,336.6,232.2,337.1z"/>
	<path class="st3" d="M232.2,337.1c-0.2,4.2-3.1,8-9.7,7c-7.4-1.2-9.5-7.4-11.2-11.2c-1.7-3.8-5.8-17-7.6-22.1
		c-0.9-2.8-0.7-5.9-0.2-8.2c0.4,2.4,2.4,9.8,4.7,15.7c3.8,9.7,6.8,18.2,9.4,21C220.2,342.1,230.7,344,232.2,337.1z"/>
	<path class="st12" d="M154.5,95.5l5.9,1.9c0,0-1,4.2-2.7,4.2S154,100.7,154.5,95.5z"/>
	<g>
		<path class="st7" d="M234.4,246.2c1.1,2.9,0.1,5.8-1.2,10.6c5.1-7.3,13.6-19,13.6-19l-24.7-7.6C222.1,230.2,233.2,243,234.4,246.2
			z"/>
		<path class="st3" d="M276.9,227.9c-0.3-1.1-0.8-2.2-1.7-3c-2.5-2.9-10.1-10.7-25.3-19.8c-19.3-11.5-22.9-10.6-32.6-17.7
			c0,0-33-3.7-46.5,9.4c-0.1,0.1-0.3,0.3-0.4,0.4c-1.2,1.2-2.3,2.6-3.1,4.2c0,0,0,17.1,6.8,23.4c6.8,6.2,28,28.4,30,28.1
			c0,0,0.2,3.4,2.7,3.6c0,0-3.5,14-2.1,20.1c0,0-2.2,5.1-1.1,8.7c1.1,3.7-0.3,7.3-0.3,9.5c0,2.3,1.9,12.1,8.1,14
			c6.1,2.1,13-0.2,13.5-5.6c0.5-5.4-0.8-8.9-0.3-11.9c0.1-0.8,0.7-3.2,1.5-6.4c2.3,1.4,5.8,2.4,7.1,2.3c1.6-0.3,4.9-9.6,7-10.3
			c2.1-0.7,9.3-9.6,14.5-14.7C259.7,257.4,280.6,241.9,276.9,227.9z M222.1,230.2l24.7,7.6c0,0-8.5,11.7-13.6,19
			c1.3-4.8,2.4-7.8,1.2-10.6C233.2,243,222.1,230.2,222.1,230.2z"/>
		<g>
			<g>
				<path class="st8" d="M171.7,198.1l-0.9,0.2c-0.1-0.6-0.2-0.9-0.2-1.2c0.1-0.1,0.3-0.3,0.4-0.4l0.5-0.1
					C171.5,196.6,171.6,197.2,171.7,198.1z"/>
			</g>
			<g>
				<path class="st8" d="M172,200.3l-0.9,0.2c0.2,1,0.4,2.1,0.6,3l0.9-0.2C172.4,202.3,172.2,201.2,172,200.3z M173.1,205.4
					l-0.9,0.2c0.2,1,0.5,2.1,0.7,3l0.9-0.2C173.6,207.5,173.4,206.4,173.1,205.4z M174.3,210.5l-0.9,0.3c0.3,1,0.6,2.1,0.8,3
					l0.9-0.3C174.9,212.6,174.6,211.5,174.3,210.5z M175.8,215.5l-0.8,0.3c0.4,1.1,0.8,2.1,1.2,2.9l0.8-0.5
					C176.7,217.5,176.2,216.5,175.8,215.5z M178.2,219.9l-0.7,0.7c0.5,0.5,1.2,1.2,2.2,2.3l0.7-0.7
					C179.3,221.1,178.6,220.4,178.2,219.9z M181.8,223.6l-0.7,0.7c0.7,0.7,1.4,1.4,2.3,2.2l0.7-0.7
					C183.3,225,182.5,224.2,181.8,223.6z M185.6,227.3l-0.7,0.7c0.8,0.7,1.5,1.4,2.3,2.2l0.7-0.7
					C187.1,228.7,186.4,227.9,185.6,227.3z M189.5,230.8l-0.7,0.7c0.8,0.7,1.5,1.4,2.3,2.2l0.7-0.7
					C190.9,232.2,190.1,231.6,189.5,230.8z M193.2,234.5l-0.7,0.7c0.8,0.8,1.5,1.4,2.3,2.2l0.7-0.7
					C194.8,235.9,194,235.2,193.2,234.5z M197.1,238.1l-0.7,0.7c0.8,0.8,1.5,1.4,2.3,2.1l0.7-0.7
					C198.6,239.5,197.9,238.7,197.1,238.1z M201,241.6l-0.7,0.7c0.8,0.8,1.6,1.4,2.4,2.1l0.7-0.8C202.5,243.1,201.7,242.3,201,241.6
					z M204.8,245.1l-0.7,0.8c0.9,0.8,1.8,1.5,2.4,2l0.6-0.8C206.6,246.6,205.8,245.9,204.8,245.1z M208.9,248.3l-0.4,0.8
					c0.7,0.3,1.1,0.9,1.3,2.2l0.9-0.2C210.6,250.1,210.1,248.8,208.9,248.3z M211.1,253.3l-0.9,0.1c0.1,0.9,0.3,2.1,0.6,3.1l0.9-0.3
					C211.3,255.2,211.2,254.1,211.1,253.3z M210.9,258.4c-0.1,0.8-0.2,1.8-0.4,3l0.9,0.2c0.2-1.3,0.4-2.3,0.5-3.1L210.9,258.4z
					 M210,263.5c-0.2,0.8-0.3,1.6-0.5,2.4l-0.1,0.7l0.9,0.2l0.1-0.7c0.2-0.8,0.4-1.6,0.5-2.4L210,263.5z M208.9,268.7
					c-0.3,1.2-0.5,2.2-0.6,3l0.9,0.2c0.2-0.8,0.4-1.9,0.6-3L208.9,268.7z M209,274l-0.9-0.1c-0.1,1-0.2,2-0.2,2.7c0,0.2,0,0.3,0,0.5
					h0.9c0-0.1,0-0.3,0-0.4C208.8,275.9,208.9,275,209,274z M208.9,279.2h-0.9c0,0.6,0,1,0,1.6c0,0.5,0,0.9,0,1.4h0.9
					c0-0.5,0-1,0-1.5C209,280.2,209,279.6,208.9,279.2z M207.9,284.4c0,0.6-0.1,1.1-0.1,1.7c0,0.5-0.1,0.9-0.1,1.4l0.9,0.1
					c0-0.5,0.1-0.9,0.1-1.4c0-0.6,0.1-1.1,0.1-1.7L207.9,284.4z M208.6,292.2c0-0.5,0-0.9,0-1.5c0-0.4,0-0.7,0-1h-0.9
					c0,0.4,0,0.8,0,1c0,0.6,0,1,0,1.6c0,0.2,0,0.3,0,0.5h0.9C208.6,292.6,208.6,292.4,208.6,292.2z M207.6,294.8
					c-0.1,0.8-0.3,1.9-0.5,3l0.9,0.2c0.2-1.1,0.4-2.2,0.5-3.1L207.6,294.8z M206.6,299.9c-0.2,0.9-0.5,2-0.7,3l0.9,0.2
					c0.3-1,0.5-2.1,0.8-3L206.6,299.9z"/>
			</g>
		</g>
		<g>
			<path class="st8" d="M218.4,223.7c0,0,1.1,0.4,2.9,0.9l0.3-0.9c-1.8-0.7-2.9-0.9-2.9-0.9L218.4,223.7z"/>
			<path class="st8" d="M226.6,225.5c-1-0.4-2.1-0.7-2.9-1l-0.3,0.9c0.8,0.3,1.9,0.7,2.9,1L226.6,225.5z"/>
			<polygon class="st8" points="232.5,263.2 233.3,263.8 235.1,261.3 234.3,260.7 			"/>
			
				<rect x="229.3" y="266.1" transform="matrix(0.5753 -0.818 0.818 0.5753 -119.9796 302.006)" class="st8" width="3.1" height="0.9"/>
			<path class="st8" d="M227.8,269.8c0,0.6,0,1,0.1,1.6l1.1-1.6l-0.8-0.6L227.8,269.8z"/>
			<path class="st8" d="M231.5,227.2c-1-0.4-2-0.7-2.9-1l-0.3,0.9c0.9,0.3,1.9,0.7,2.9,1L231.5,227.2z"/>
			<path class="st8" d="M246.4,232.2c-0.9-0.3-1.9-0.7-2.9-1l-0.3,0.8c1,0.4,2,0.8,2.9,1L246.4,232.2z"/>
			<path class="st8" d="M236.5,228.9c-0.9-0.4-2-0.7-2.9-1l-0.3,0.9c0.9,0.4,2,0.7,2.9,1L236.5,228.9z"/>
			<path class="st8" d="M245.2,246.6l0.7,0.7c0.7-0.7,1.3-1.5,2.1-2.3l-0.8-0.7C246.6,245.1,245.8,245.9,245.2,246.6z"/>
			<path class="st8" d="M248.7,242.7l0.8,0.6c0.8-0.9,1.4-1.7,1.9-2.4l-0.8-0.6C250,241,249.4,241.8,248.7,242.7z"/>
			<path class="st8" d="M251.3,234.1c-0.7-0.3-1.7-0.7-2.9-1.1l-0.3,0.8c1.2,0.5,2.2,0.8,2.9,1.1L251.3,234.1z"/>
			<path class="st8" d="M253.2,235.6l-0.8,0.3c0,0.1,0.1,0.3,0.1,0.5c0,0.6-0.3,1.2-0.7,2.1l0.8,0.5c0.6-1,0.8-1.9,0.8-2.5
				C253.3,236.2,253.3,235.9,253.2,235.6z"/>
			<polygon class="st8" points="235.6,259 236.3,259.5 238.1,257 237.3,256.5 			"/>
			<path class="st8" d="M241.7,250.5l0.8,0.7c0.6-0.7,1.1-1.3,2.1-2.3l-0.7-0.7C242.9,249.1,242.2,249.9,241.7,250.5z"/>
			<path class="st8" d="M240.1,252.6l-1.5,2.2l0.8,0.6l1.5-2.2c0.1-0.1,0.2-0.3,0.3-0.4l-0.8-0.6
				C240.3,252.3,240.2,252.4,240.1,252.6z"/>
			<path class="st8" d="M238.2,230.5c1,0.4,2,0.7,2.9,1l0.3-0.9c-0.9-0.4-1.9-0.7-2.9-1L238.2,230.5z"/>
		</g>
	</g>
	<path class="st13" d="M250.1,129.3c-1.1,4.9-5.8,9.4-9.5,12.3l0,0c-2.6,2.1-4.8,3.3-4.8,3.3l-2.3-1.9l-6.9-5.9c0,0,0,0-3.3,6.8
		c-3.3,6.8-2.4,24.2-2.7,29.2c-0.4,4.3,6.3,14.5,7.7,17.9c0.2,0.5,0.3,0.8,0.2,1c-0.6,1.4-17.1,3.6-27.8,0
		c-10.7-3.6-32.4,9.4-33.2,9.2c-0.8-0.3-1.3-31.9-4.6-46.1c-3.3-14.1,2.2-51.1,2.2-51.1l-4.4-1.4l-2-0.7c-5.8,0.3-4-6.6-4-6.6
		s0.2,7,3.8,5.2c1.6-0.8,1.5-5.6,0.9-10.6c-0.7-6.1-2.1-12.5-2.2-12.6c0.1,0,1.1,0.3,2.8,0.8c5.7,1.6,18.1,5.3,22.8,8.1
		c1.4,0.8,4.8,3.3,7.4,5.2c2,1.4,3.5,2.5,3.5,2.5c9.3,5.1,12.2,4.8,19.9,7.1c0.4,0.1,0.7,0.2,1,0.3c9.2,2.7,19.8,6,23.7,12.6
		c3,5.1,8.1,11,10.6,13.8C249.6,128.7,250.1,129.3,250.1,129.3z"/>
	<path class="st3" d="M160.6,102.8l-2-0.7c-5.8,0.3-4-6.6-4-6.6s0.2,7,3.8,5.2c1.6-0.8,1.5-5.6,0.9-10.6c-0.7-6.1-2.1-12.5-2.2-12.6
		c0.1,0,1.1,0.3,2.8,0.8C161.4,84,163.8,96.6,160.6,102.8z"/>
	<path class="st3" d="M250.1,129.3c-1.1,4.9-5.8,9.4-9.5,12.3l0,0c-2.6,2.1-4.8,3.3-4.8,3.3l-2.3-1.9c7.5-5.1,12.8-11.5,14.9-15.6
		C249.2,128.3,250.1,129.3,250.1,129.3z"/>
	<path class="st3" d="M212.8,101c-1.5,4-3.8,7.5-15.4,4.7c-13.1-3.2-5.9-13.2-5.9-13.2c2,1.4,2.2,1.6,2.2,1.6
		c9.3,5.1,9.5,4.1,17.1,6.3C211.2,100.5,212.5,100.9,212.8,101z"/>
	<path class="st5" d="M240.6,141.6c-2.6,2.1-4.8,3.3-4.8,3.3l-9-7.8c0,0,0,0-3.3,6.8c-3.3,6.8-2.4,24.2-2.7,29.2
		c-6.5-15.5,4.9-43.9,4.9-43.9C228.7,135.7,240.4,141.5,240.6,141.6z"/>
	<path class="st5" d="M228.4,192.2c-0.6,1.4-17.1,3.6-27.8,0c-10.7-3.6-32.4,9.4-33.2,9.2c-0.8-0.3-1.3-31.9-4.6-46.1
		c-3.3-14.1,2.2-51.1,2.2-51.1l-6.5-2.1c-5.8,0.3-4-6.6-4-6.6s0.2,7,3.8,5.2c1.6-0.8,1.5-5.6,0.9-10.6c0,0,11.3,8.1,17.8,10
		c0,0-1.8,11.6-3.6,26.8c-1.7,15.2-0.7,25.5,2.8,36.1c3.5,10.6,11.2,20.7,22,21.9c10.7,1.1,21.3,8.7,29.9,6.1
		C228.4,191.6,228.5,192,228.4,192.2z"/>
	<g>
		<path class="st3" d="M231.4,65.5L231.4,65.5c-0.3,0.3-0.5,0.4-0.5,0.4l-35.5,12.4c0,0-5.3-2.4-5-11.7c0.2-6.7,4.5-9.7,6.9-10.9
			c-0.3-0.3-0.6-0.6-0.8-0.8c-0.3-0.4,0-1,0.5-1s0.8,0,1.1,0.1c-0.1-0.5-0.2-0.8-0.2-1.3c0-0.6,0.6-0.8,0.9-0.6
			c0.8,0.5,1.2,0.8,1.5,1.3c0,0,0,0,0-0.1c3.5-3.5,8-5.6,12.9-5.8c2.6-0.2,5.9-0.4,9.1-0.8c6.2-0.7,11,0.5,12.8-1.4
			C235.7,45.1,243.3,57.9,231.4,65.5z"/>
		<path class="st3" d="M230.8,63.2c0,0,3.7,8.5-2.4,13.6C228.3,76.8,227.5,66.6,230.8,63.2z"/>
		<path class="st1" d="M209.6,102.6c-0.1,0.1-0.1,0.1-0.2,0.2c-0.8,0.6-1.8,1.2-3.5,1.7c-3.1,0.9-9.9-2.1-12.8-3.5
			c-0.8-0.4-1.1-1.3-0.8-2.2c1.7-4.4,2.4-9,2.4-13.8c0-7.2,2.9-13.9,2.9-13.9c-0.8,3.4,0.6,8.3,2.5,13.2
			C203.4,92.6,208.5,100.8,209.6,102.6z"/>
		<path class="st1" d="M225.9,80.9c0,1.4-0.2,2.8-0.7,4.1c-0.4,1.1-0.9,2.3-1.6,3.3L219,95c-1.8,2.4-4.9,3.6-7.8,2.7
			c-3.4-0.9-7.6-2.9-10.9-6.5c-6.2-6.8-3.4-18.1-3.4-18.1s3.5-11.3,14-13.3c10.6-2,19,5.5,19,5.5l-0.8,8.3c-0.1,0.5-0.1,0.9-0.2,1.4
			c-0.4,1.5-0.9,3-1.8,4.2L225.9,80.9z"/>
		<path class="st3" d="M220.3,70.5c0,0-4.1-6.6-9-2.7l0.4,1.4c0,0,4.5-2.4,7.8,2.8L220.3,70.5z"/>
		<path class="st2" d="M225.9,80.9c0,1.4-0.2,2.8-0.7,4.1c-0.9-1.1-3.1-2.4-7.9-2.8c0,0,3-1.4,5.5-0.8c0.7,0.2,1.3-0.4,1.2-1
			l-0.4-4.6c0,0,0.8-0.8,1.9-0.8c0.7,0,2.1,0,3.1,0.2c-0.4,1.5-0.9,3-1.8,4.2L225.9,80.9z"/>
		<path class="st3" d="M228.9,73.8c-1.8-0.3-3.4-0.2-3.4-0.2L225,75c1.4-0.1,2.5,0,3.6,0.3c0.5,0.1,0.9-0.1,1-0.6l0,0
			C229.6,74.3,229.3,73.9,228.9,73.8z"/>
		<path class="st11" d="M222.2,87l-12.4-4.3c0,0-0.3,7.3,6.6,8.8C221.7,92.6,222.2,87,222.2,87z"/>
		<path class="st2" d="M210.5,97.4l-0.6,4.9c-0.1,0.1-0.2,0.2-0.3,0.3c-0.1,0.1-0.1,0.1-0.2,0.2c-1.8-0.8-9.5-4.7-10.3-10.3
			c-0.5-3.6,0.2-6.2,0.9-7.9c0.6-1.3,1.1-2.1,1.1-2.1C202.9,94.5,210.5,97.4,210.5,97.4z"/>
		<path class="st1" d="M200.5,72.2c0,0-1.2-5.2-5.3-4s-4.6,12.1,0.9,11.4C201.7,78.9,200.5,72.2,200.5,72.2z"/>
		<path class="st3" d="M212.5,59.7c0,0-2.4,0.3-2.6,3.2s-0.8,8-4.6,7.9c-3.8-0.1-4.1,4.5-4.1,4.5l-2.7-0.7c0,0-0.3-8.2,1.5-11
			C201.7,60.8,209.4,56.8,212.5,59.7z"/>
		<path class="st3" d="M212.1,72.7c0,0,1.3-1.7,4-0.9c2.6,0.8,2.4,3.6,2.4,3.6S217,71.8,212.1,72.7z"/>
		<path class="st3" d="M224.3,77.3c0,0,0.9-0.6,2-0.2c1,0.4,0.7,1.8,0.7,1.8S226.8,77.2,224.3,77.3z"/>
	</g>
	<g>
		<g>
			
				<rect x="267.5" y="78.1" transform="matrix(0.5342 -0.8454 0.8454 0.5342 44.7257 288.9885)" class="st3" width="34.1" height="51.5"/>
			<polygon class="st3" points="315.5,103.2 297.3,132.1 253.7,104.6 255.6,104.4 314.7,100.2 315.3,102.2 315.3,102.2 			"/>
			<path class="st11" d="M315.3,102.2l-17.4,27.7c-0.6-0.4-0.4-0.2-1.3-0.8l-12-27.6l30.2-1.2L315.3,102.2z"/>
			
				<rect x="267.8" y="76.8" transform="matrix(0.5342 -0.8454 0.8454 0.5342 46.8854 288.0407)" class="st3" width="34.1" height="49.3"/>
		</g>
		<path class="st1" d="M301.1,88.7L301.1,88.7c-0.4-0.8-1.3-1.4-2-1.5c0-0.7-0.7-1.2-1.4-1.6c-0.5-0.2-0.9-0.2-1.4-0.1
			c-0.2-0.8-1-1.4-1.6-1.2c0,0-0.1,0-0.4,0.1c-0.1-0.6-0.4-0.9-0.4-0.9l0,0c-0.4-0.8-1.8-1.6-2.4-1.3c0,0-5.5,0.9-6.7,4.7
			c-1.3,3.8-2.9,8.1-1,7.8c0.6-0.1,1.2-0.6,1.8-1.4c-0.7,2.3-0.9,4.1,0.3,3.9c0.7-0.1,1.5-0.9,2.3-2c-0.6,2-0.7,3.3,0.5,3.2
			c1-0.1,2.4-1.8,3.3-3.7c-0.7,2.2-0.8,3.9,0.4,3.7c1.5-0.2,2.5-3.2,4.1-5.6c1.8-2.7,1.7-1.1,3.6-1.9l1.4,0.8
			C302.1,90.1,301.2,88.8,301.1,88.7z"/>
	</g>
	<path class="st3" d="M191.6,92.6c0,0,1.5-12.5-3.7-13.6c-10.1-2-21.3,12.9-27.3,28.5c-9.1,23.4,1.4,40.9,1.4,40.9l0.2-9
		c0,0-0.8-19.4,8.2-34.9c9-15.4,15.3-19.5,16.6-18.5c1.3,1,1.4,4.1,1.4,4.1L191.6,92.6z"/>
	<path class="st3" d="M214.5,101.5c0,0,3-7.8,12.7-4.3c8.5,3,7.5,12.1,6.3,23.9c-1.3,11.9-12.8,41.2-12.8,41.2s-0.5-10.4,0.8-16.5
		c0,0,7.9-26.1,5.1-36.4c-2.8-10.3-9.2-7.1-9.2-7.1L214.5,101.5z"/>
</g>
</svg>
