<svg width="254" height="124" viewBox="0 0 254 124" fill="none" xmlns="http://www.w3.org/2000/svg">
<g clip-path="url(#clip0)">
<path d="M213.098 36.0252L203.084 63.7775C206.054 71.5084 213.968 75.6669 221.29 77.8397C224.858 78.4577 241.363 83.8679 228.295 89.0725C220.351 89.9506 212.269 88.0602 205.738 83.5995L199.463 97.186C213.409 108.512 243.034 108.722 251.712 92.3401C254.74 86.6283 254.749 76.5741 251.817 71.094C245.67 60.9638 231.045 59.0831 224.923 55.4358C220.159 52.5962 222.326 49.1566 227.173 48.8407C232.085 48.5203 239.322 51.0031 243.064 53.8321L251.768 40.5081C244.105 34.0014 224.888 30.2837 213.098 36.025V36.0252Z" fill="#0E3A61"/>
<path d="M69.1852 41.7476L69.1178 76.5307C69.0904 90.9915 64.0756 97.5535 56.7028 101.18C44.4482 103.022 38.8869 98.0943 33.9512 88.7948C41.5969 91.4109 49.8129 86.8971 49.847 75.4885L49.9648 36.3053C61.5555 30.3797 67.0893 34.3203 69.1852 41.7476ZM7.88414 64.3357L7.8524 36.2455C18.8339 30.4506 27.7741 34.3836 27.8905 43.5529L27.9592 76.4435C26.1253 74.3932 23.6617 71.5742 21.7967 70.1363C18.4017 67.5191 12.929 64.9723 7.88425 64.3357H7.88414Z" fill="#0E3A61"/>
<path d="M92.122 61.1492C101.763 46.9157 126.037 52.9825 124.552 72.9662V104.339L105.456 104.205L105.152 75.5232C105.173 66.5284 94.3416 66.639 92.9559 75.7615L92.7876 104.255L73.8599 104.339L73.4547 56.6407C83.6993 51.3478 89.9752 52.7607 92.122 61.1493V61.1492Z" fill="#0E3A61"/>
<path fill-rule="evenodd" clip-rule="evenodd" d="M128.88 54.9821H147.34V104.664H128.88V54.9821ZM138.044 28.1835C143.503 28.1835 147.928 32.7467 147.928 38.3763C147.928 44.006 143.503 48.5692 138.044 48.5692C132.585 48.5692 128.16 44.006 128.16 38.3763C128.16 32.7467 132.585 28.1835 138.044 28.1835Z" fill="#0E3A61"/>
<path fill-rule="evenodd" clip-rule="evenodd" d="M176.347 97.536L187.974 104.744L223.63 6.84001L207.734 0L176.347 97.536Z" fill="#0E3A61"/>
<path fill-rule="evenodd" clip-rule="evenodd" d="M146.683 46.2863C149.339 43.8903 150.605 40.2889 149.211 34.3815C157.477 32.584 162.109 34.7097 164.706 39.0331L187.974 104.744L168.459 104.271L146.684 46.2863H146.683Z" fill="#0E3A61"/>
<path fill-rule="evenodd" clip-rule="evenodd" d="M0.466816 67.7676L0.466384 72.6778C12.5026 71.8916 22.4177 80.3506 28.0241 91.3939C34.172 106.621 43.5945 109.138 54.3741 102.565C38.4273 101.661 35.8351 96.4323 30.8907 83.3274C27.4288 72.3807 5.99565 58.4166 0.466816 67.7676ZM0.000198364 73.0921C8.07169 72.388 20.0009 78.7171 25.2793 88.4146C28.736 93.6146 30.5108 103.168 40.5019 106.65C25.4603 105.815 28.7834 106.566 20.795 93.466C16.6753 86.3857 8.81543 80.7097 1.0625 79.5045L0.000198364 73.092V73.0921ZM0.259837 80.3339C11.0669 82.209 18.0453 88.4944 27.9343 107.126C16.1984 103.228 4.79555 95.9956 0.259837 80.3339Z" fill="#0E3A61"/>
<path fill-rule="evenodd" clip-rule="evenodd" d="M24.0738 119.821L24.4197 120.324L24.3791 120.35C23.9925 120.597 23.5286 120.791 23.013 120.922C22.502 121.052 21.9389 121.121 21.3489 121.121C20.0963 121.121 19.0879 120.723 18.4005 119.91C17.7446 119.135 17.3831 117.984 17.3831 116.442C17.3831 114.901 17.7446 113.749 18.4005 112.974C19.0879 112.161 20.0963 111.764 21.3489 111.764C21.8945 111.764 22.4064 111.849 22.8681 112.049C23.3307 112.25 23.7425 112.564 24.0865 113.022L24.1217 113.068L23.4523 113.371L23.4297 113.34C23.2056 113.03 22.9071 112.798 22.5614 112.642C22.1955 112.476 21.7762 112.395 21.335 112.395C20.2841 112.395 19.505 112.793 18.9773 113.454C18.3923 114.187 18.1135 115.244 18.1135 116.442C18.1135 117.64 18.3923 118.697 18.9771 119.43C19.505 120.091 20.2841 120.489 21.335 120.489C21.9026 120.489 22.4223 120.427 22.8736 120.312C23.328 120.197 23.7134 120.026 24.0079 119.809L24.0465 119.781L24.0738 119.821V119.821ZM26.868 119.97C27.2326 120.347 27.747 120.552 28.3839 120.552C28.8515 120.552 29.2775 120.508 29.6651 120.42C30.0518 120.332 30.4008 120.199 30.7151 120.02L30.7535 119.998L31.0528 120.464L31.0112 120.488C30.6259 120.716 30.216 120.875 29.7791 120.976C29.3427 121.077 28.8787 121.121 28.3839 121.121C27.4914 121.121 26.7802 120.84 26.2915 120.322C25.8039 119.805 25.5397 119.052 25.5397 118.107C25.5397 117.019 25.8383 116.154 26.3893 115.56C26.9419 114.965 27.7468 114.643 28.7576 114.643C29.4765 114.643 30.052 114.826 30.4482 115.165C30.8453 115.504 31.0617 115.997 31.0617 116.618C31.0617 117.241 30.7945 117.736 30.2998 118.076C29.811 118.411 29.0993 118.592 28.2035 118.592C27.877 118.592 27.5391 118.57 27.1997 118.533C26.881 118.497 26.5605 118.448 26.2463 118.39C26.2955 119.065 26.5112 119.601 26.8678 119.97L26.868 119.97ZM29.9147 115.585C29.6237 115.343 29.1973 115.212 28.6609 115.212C27.9343 115.212 27.3507 115.454 26.9394 115.903C26.5322 116.347 26.2911 116.998 26.2445 117.82C26.5552 117.887 26.8716 117.936 27.1824 117.969C27.5341 118.006 27.88 118.023 28.2038 118.023C28.8873 118.023 29.4292 117.891 29.7988 117.647C30.1623 117.408 30.3592 117.058 30.3592 116.617C30.3592 116.176 30.2025 115.825 29.9147 115.585V115.585ZM34.6812 114.971C35.1371 114.766 35.6875 114.643 36.319 114.643C37.0172 114.643 37.5755 114.851 37.96 115.234C38.3445 115.617 38.5537 116.173 38.5537 116.868V120.996H37.8649V117.031C37.8649 116.456 37.7107 116.001 37.4299 115.691C37.1481 115.38 36.7363 115.212 36.2221 115.212C35.4609 115.212 34.7934 115.415 34.324 115.782C33.8779 116.13 33.6099 116.628 33.6099 117.243V120.996H32.9211V114.728L32.9405 114.714C32.98 114.686 33.0238 114.668 33.0673 114.657C33.1097 114.647 33.1518 114.643 33.1892 114.643C33.314 114.643 33.4264 114.688 33.5043 114.792C33.5697 114.88 33.6097 115.01 33.6097 115.19V115.787C33.8663 115.46 34.2274 115.175 34.681 114.971H34.6812ZM44.2455 114.815V115.312H41.6976V118.984C41.6976 119.487 41.8117 119.885 42.0395 120.153C42.2586 120.412 42.5863 120.552 43.0217 120.552C43.2124 120.552 43.3864 120.536 43.5511 120.504C43.7158 120.472 43.8721 120.423 44.0282 120.355L44.0804 120.333L44.1973 120.877L44.1614 120.892C43.7956 121.044 43.3464 121.121 42.8417 121.121C42.267 121.121 41.8084 120.937 41.4931 120.597C41.1791 120.258 41.0088 119.765 41.0088 119.146V115.312H39.8593V114.768H41.0088V113.164L41.028 113.15C41.0677 113.121 41.1116 113.103 41.155 113.092C41.1975 113.082 41.2396 113.078 41.2769 113.078C41.4017 113.078 41.5142 113.123 41.592 113.227C41.6576 113.315 41.6976 113.446 41.6976 113.626V114.768H44.2457V114.815L44.2455 114.815ZM47.2965 115.045C47.7223 114.793 48.2354 114.643 48.824 114.643C49.0136 114.643 49.1828 114.659 49.3335 114.689C49.4849 114.72 49.6171 114.765 49.7313 114.823L49.7667 114.841L49.5575 115.51L49.5068 115.481C49.3939 115.415 49.2601 115.363 49.1147 115.328C48.9677 115.293 48.8078 115.275 48.644 115.275C47.9638 115.275 47.3688 115.518 46.9501 115.96C46.5491 116.384 46.3088 116.991 46.3088 117.744V120.996H45.6198V114.728L45.6392 114.714C45.6789 114.686 45.7229 114.668 45.7662 114.657C45.8087 114.647 45.8506 114.643 45.8881 114.643C46.013 114.643 46.1253 114.688 46.2032 114.792C46.2688 114.88 46.3086 115.01 46.3086 115.19V116.028C46.5482 115.633 46.8808 115.29 47.2962 115.045H47.2965ZM55.8733 120.262C55.3229 120.818 54.5219 121.121 53.5187 121.121C52.5156 121.121 51.7149 120.818 51.1643 120.262C50.6139 119.705 50.3145 118.896 50.3145 117.882C50.3145 116.868 50.6139 116.058 51.1643 115.502C51.7149 114.945 52.5158 114.643 53.5187 114.643C54.5219 114.643 55.3228 114.945 55.8733 115.502C56.4239 116.058 56.723 116.868 56.723 117.882C56.723 118.896 56.4239 119.705 55.8733 120.262ZM51.6784 119.849C52.1054 120.304 52.7304 120.552 53.5187 120.552C54.3074 120.552 54.9324 120.304 55.3595 119.849C55.7886 119.391 56.0203 118.722 56.0203 117.882C56.0203 117.042 55.7886 116.372 55.3595 115.915C54.9324 115.46 54.3073 115.212 53.5187 115.212C52.7302 115.212 52.1052 115.46 51.6782 115.915C51.2493 116.372 51.0175 117.042 51.0175 117.882C51.0175 118.722 51.2491 119.391 51.6784 119.849ZM67.6784 119.742C68.1464 119.259 68.4006 118.551 68.4006 117.657V111.849L68.42 111.835C68.4601 111.806 68.5039 111.788 68.5492 111.777C68.5928 111.767 68.6383 111.764 68.6827 111.764C68.8083 111.764 68.9251 111.816 69.0066 111.932C69.0747 112.029 69.1172 112.17 69.1172 112.361V117.682C69.1172 118.76 68.7967 119.62 68.2031 120.211C67.611 120.8 66.7486 121.121 65.6639 121.121C64.5854 121.121 63.7264 120.8 63.1358 120.21C62.5448 119.619 62.2243 118.759 62.2243 117.682V111.849L62.2436 111.835C62.2836 111.806 62.3275 111.788 62.3727 111.777C62.4165 111.767 62.4618 111.764 62.5064 111.764C62.6318 111.764 62.7486 111.816 62.8301 111.932C62.8982 112.029 62.9409 112.17 62.9409 112.361V117.657C62.9409 118.552 63.1923 119.26 63.6579 119.744C64.1232 120.228 64.8043 120.489 65.6638 120.489C66.5243 120.489 67.2098 120.227 67.6784 119.742ZM73.2768 114.971C73.7329 114.766 74.2831 114.643 74.9146 114.643C75.6129 114.643 76.1711 114.851 76.5554 115.234C76.9401 115.617 77.1493 116.173 77.1493 116.868V120.996H76.4603V117.031C76.4603 116.456 76.3064 116.001 76.0254 115.691C75.7439 115.38 75.3321 115.212 74.8176 115.212C74.0565 115.212 73.3892 115.415 72.9194 115.782C72.4736 116.13 72.2055 116.629 72.2055 117.244V120.996H71.5167V114.729L71.5361 114.715C71.5758 114.686 71.6196 114.668 71.6631 114.657C71.7055 114.647 71.7477 114.643 71.785 114.643C71.9099 114.643 72.0223 114.688 72.1001 114.792C72.1657 114.88 72.2055 115.01 72.2055 115.191V115.787C72.4622 115.461 72.8232 115.175 73.2769 114.971H73.2768ZM80.073 113.338C79.9868 113.409 79.8624 113.447 79.7063 113.447C79.5561 113.447 79.4347 113.409 79.3497 113.337C79.2637 113.264 79.2162 113.158 79.2162 113.025C79.2162 112.886 79.2635 112.774 79.3496 112.696C79.4345 112.62 79.556 112.578 79.7063 112.578C79.8627 112.578 79.987 112.619 80.0733 112.695C80.1625 112.773 80.21 112.885 80.21 113.025C80.21 113.159 80.1622 113.265 80.0732 113.338H80.073ZM79.4155 114.768H80.0576V120.996H79.3686V114.768H79.4155ZM84.7333 120.332L87.2403 114.636L87.8873 114.782C86.9551 116.852 86.0215 118.923 85.0957 120.996H84.3431C83.4125 118.933 82.4862 116.868 81.5607 114.803L81.5859 114.78C81.6321 114.738 81.687 114.703 81.7456 114.679C81.8016 114.656 81.8618 114.643 81.9218 114.643C82.0145 114.643 82.1039 114.668 82.1871 114.731C82.2674 114.792 82.3417 114.889 82.4076 115.034L84.7331 120.332L84.7333 120.332ZM90.1 119.97C90.4646 120.347 90.979 120.552 91.6159 120.552C92.0834 120.552 92.5096 120.508 92.8972 120.42C93.2839 120.332 93.6328 120.199 93.9471 120.02L93.9857 119.998L94.2848 120.464L94.2432 120.488C93.8579 120.716 93.448 120.875 93.0111 120.976C92.5747 121.077 92.1107 121.121 91.6157 121.121C90.7234 121.121 90.012 120.84 89.5237 120.322C89.036 119.805 88.7717 119.052 88.7717 118.107C88.7717 117.019 89.0703 116.154 89.6213 115.56C90.1738 114.965 90.9788 114.643 91.9897 114.643C92.7086 114.643 93.284 114.826 93.6803 115.165C94.0773 115.504 94.2937 115.997 94.2937 116.618C94.2937 117.241 94.0265 117.736 93.5318 118.076C93.0431 118.411 92.3312 118.592 91.4355 118.592C91.1088 118.592 90.7712 118.57 90.4318 118.533C90.1128 118.497 89.7925 118.448 89.4783 118.39C89.5277 119.064 89.7433 119.601 90.0998 119.97L90.1 119.97ZM93.1466 115.585C92.8557 115.343 92.4293 115.212 91.8929 115.212C91.1663 115.212 90.5829 115.454 90.1714 115.903C89.7641 116.348 89.5231 116.998 89.4766 117.82C89.7872 117.887 90.1036 117.936 90.4145 117.969C90.7661 118.006 91.112 118.023 91.4357 118.023C92.1193 118.023 92.6613 117.891 93.0308 117.647C93.3944 117.408 93.5911 117.058 93.5911 116.617C93.5911 116.176 93.4345 115.825 93.1466 115.585V115.585ZM97.8295 115.045C98.2553 114.793 98.7684 114.643 99.357 114.643C99.5464 114.643 99.7158 114.659 99.8664 114.689C100.018 114.72 100.151 114.765 100.265 114.823L100.3 114.841L100.091 115.51L100.04 115.481C99.9269 115.415 99.7931 115.363 99.6478 115.328C99.5008 115.293 99.3408 115.275 99.177 115.275C98.4969 115.275 97.9019 115.518 97.4833 115.96C97.0823 116.384 96.8418 116.991 96.8418 117.744V120.996H96.1528V114.728L96.1723 114.714C96.212 114.686 96.2557 114.668 96.2992 114.657C96.3419 114.647 96.3836 114.643 96.4211 114.643C96.546 114.643 96.6584 114.688 96.7362 114.792C96.8018 114.88 96.8418 115.01 96.8418 115.19V116.028C97.0813 115.633 97.4139 115.29 97.8294 115.045H97.8295ZM101.815 115.068C102.221 114.792 102.811 114.643 103.553 114.643C103.937 114.643 104.29 114.675 104.624 114.743C104.958 114.811 105.274 114.915 105.581 115.061L105.63 115.083L105.273 115.625L105.237 115.608C104.963 115.478 104.671 115.379 104.367 115.312C104.065 115.246 103.75 115.212 103.429 115.212C102.934 115.212 102.545 115.306 102.281 115.478C102.022 115.647 101.883 115.895 101.883 116.205C101.883 117.043 102.801 117.34 103.749 117.646L103.764 117.65C104.818 117.993 105.913 118.35 105.913 119.459C105.913 119.984 105.672 120.402 105.226 120.687C104.788 120.968 104.15 121.121 103.346 121.121C102.816 121.121 102.347 121.079 101.946 120.991C101.552 120.905 101.223 120.776 100.965 120.599L100.931 120.576L101.181 120.08L101.224 120.108C101.456 120.258 101.747 120.367 102.088 120.44C102.447 120.516 102.861 120.552 103.318 120.552C103.919 120.552 104.396 120.45 104.721 120.264C105.038 120.082 105.21 119.817 105.21 119.484C105.21 119.147 105.008 118.912 104.698 118.726C104.379 118.535 103.945 118.395 103.498 118.252C102.948 118.082 102.373 117.899 101.933 117.605C101.486 117.306 101.18 116.893 101.18 116.267C101.18 115.756 101.403 115.347 101.815 115.068V115.068ZM108.352 113.338C108.265 113.409 108.141 113.447 107.985 113.447C107.835 113.447 107.713 113.408 107.628 113.337C107.542 113.264 107.495 113.158 107.495 113.025C107.495 112.886 107.542 112.774 107.628 112.696C107.713 112.619 107.835 112.577 107.985 112.577C108.141 112.577 108.266 112.619 108.352 112.695C108.441 112.772 108.488 112.885 108.488 113.025C108.488 113.158 108.441 113.265 108.352 113.338ZM107.694 114.768H108.336V120.996H107.647V114.768H107.694ZM114.18 114.815V115.312H111.632V118.984C111.632 119.487 111.746 119.885 111.974 120.153C112.193 120.412 112.521 120.552 112.956 120.552C113.147 120.552 113.321 120.536 113.486 120.504C113.651 120.472 113.807 120.423 113.963 120.355L114.015 120.333L114.132 120.877L114.096 120.892C113.73 121.044 113.281 121.121 112.776 121.121C112.202 121.121 111.743 120.937 111.428 120.597C111.114 120.258 110.943 119.765 110.943 119.146V115.312H109.794V114.768H110.943V113.164L110.963 113.15C111.002 113.121 111.046 113.103 111.089 113.092C111.132 113.082 111.174 113.078 111.212 113.078C111.336 113.078 111.449 113.123 111.526 113.227C111.592 113.315 111.632 113.446 111.632 113.626V114.768H114.18V114.815V114.815ZM119.199 111.809L119.632 112.443C118.878 112.796 118.124 113.146 117.37 113.498L117.103 113.06L119.174 111.772L119.199 111.809ZM116.577 114.788C116.975 114.687 117.398 114.643 117.845 114.643C118.591 114.643 119.187 114.851 119.597 115.233C120.008 115.616 120.232 116.172 120.232 116.868V121.035L120.213 121.049C120.173 121.078 120.129 121.096 120.086 121.107C120.043 121.117 120.001 121.121 119.964 121.121C119.839 121.121 119.727 121.076 119.649 120.972C119.583 120.884 119.543 120.754 119.543 120.573V119.872C119.287 120.219 118.922 120.52 118.502 120.739C118.045 120.978 117.521 121.121 117 121.121C116.337 121.121 115.81 120.947 115.449 120.625C115.086 120.301 114.89 119.829 114.89 119.234C114.89 118.637 115.149 118.164 115.626 117.841C116.1 117.52 116.789 117.347 117.651 117.347C117.963 117.347 118.287 117.356 118.609 117.373C118.924 117.389 119.24 117.413 119.543 117.442V117.031C119.543 116.455 119.379 116 119.075 115.69C118.77 115.38 118.324 115.212 117.762 115.212C117.357 115.212 116.991 115.255 116.657 115.344C116.325 115.431 116.024 115.564 115.752 115.743L115.713 115.768L115.413 115.302L115.452 115.276C115.802 115.048 116.178 114.89 116.577 114.788V114.788ZM115.986 120.203C116.244 120.43 116.623 120.552 117.097 120.552C117.674 120.552 118.348 120.323 118.842 119.91C119.255 119.566 119.543 119.094 119.543 118.52V118.012C119.228 117.982 118.902 117.958 118.583 117.942C118.26 117.925 117.944 117.916 117.651 117.916C116.995 117.916 116.477 118.039 116.125 118.267C115.779 118.491 115.593 118.819 115.593 119.234C115.593 119.65 115.732 119.979 115.986 120.203V120.203ZM124.128 115.045C124.554 114.793 125.067 114.643 125.655 114.643C125.845 114.643 126.014 114.659 126.165 114.689C126.316 114.72 126.449 114.765 126.563 114.823L126.598 114.841L126.389 115.51L126.338 115.481C126.225 115.415 126.091 115.363 125.946 115.328C125.799 115.293 125.639 115.275 125.476 115.275C124.795 115.275 124.2 115.518 123.782 115.96C123.381 116.384 123.14 116.991 123.14 117.744V120.996H122.451V114.728L122.471 114.714C122.51 114.686 122.554 114.668 122.598 114.657C122.64 114.647 122.682 114.643 122.719 114.643C122.844 114.643 122.957 114.688 123.035 114.792C123.1 114.88 123.14 115.01 123.14 115.19V116.028C123.38 115.633 123.712 115.29 124.128 115.045ZM128.598 113.338C128.512 113.409 128.388 113.447 128.231 113.447C128.081 113.447 127.96 113.408 127.875 113.337C127.789 113.264 127.741 113.158 127.741 113.025C127.741 112.886 127.789 112.774 127.875 112.696C127.96 112.619 128.081 112.577 128.231 112.577C128.388 112.577 128.512 112.619 128.598 112.695C128.687 112.772 128.735 112.885 128.735 113.025C128.735 113.158 128.687 113.265 128.598 113.338ZM127.94 114.768H128.583V120.996H127.894V114.768H127.94ZM136.014 120.262C135.464 120.818 134.663 121.121 133.66 121.121C132.657 121.121 131.856 120.818 131.305 120.262C130.755 119.705 130.456 118.896 130.456 117.882C130.456 116.868 130.755 116.058 131.305 115.502C131.856 114.945 132.657 114.643 133.66 114.643C134.663 114.643 135.464 114.945 136.014 115.502C136.565 116.058 136.864 116.868 136.864 117.882C136.864 118.896 136.565 119.705 136.014 120.262ZM131.819 119.849C132.246 120.304 132.871 120.552 133.66 120.552C134.449 120.552 135.074 120.304 135.501 119.849C135.93 119.391 136.161 118.722 136.161 117.882C136.161 117.042 135.93 116.373 135.501 115.915C135.074 115.46 134.449 115.212 133.66 115.212C132.872 115.212 132.246 115.46 131.819 115.915C131.39 116.372 131.158 117.042 131.158 117.882C131.158 118.722 131.39 119.391 131.819 119.849ZM145.085 120.365L148.296 111.757L149.054 111.9C147.872 114.932 146.678 117.961 145.505 120.996H144.651C143.475 117.973 142.286 114.951 141.125 111.923L141.148 111.901C141.194 111.86 141.247 111.826 141.31 111.802C141.373 111.778 141.444 111.764 141.526 111.764C141.62 111.764 141.729 111.79 141.825 111.866C141.9 111.926 141.967 112.015 142.013 112.146L145.085 120.365L145.085 120.365ZM150.935 114.788C151.334 114.687 151.756 114.643 152.203 114.643C152.949 114.643 153.545 114.851 153.955 115.233C154.367 115.616 154.59 116.172 154.59 116.868V121.035L154.571 121.049C154.531 121.078 154.487 121.096 154.444 121.107C154.402 121.117 154.359 121.121 154.322 121.121C154.197 121.121 154.085 121.076 154.007 120.972C153.941 120.884 153.901 120.754 153.901 120.573V119.872C153.645 120.219 153.28 120.52 152.86 120.739C152.403 120.978 151.879 121.121 151.358 121.121C150.695 121.121 150.168 120.947 149.807 120.625C149.444 120.301 149.248 119.829 149.248 119.234C149.248 118.637 149.507 118.164 149.984 117.841C150.458 117.52 151.147 117.347 152.009 117.347C152.321 117.347 152.645 117.356 152.967 117.373C153.282 117.389 153.598 117.413 153.901 117.442V117.031C153.901 116.455 153.737 116 153.433 115.69C153.128 115.38 152.682 115.212 152.12 115.212C151.715 115.212 151.349 115.255 151.015 115.344C150.683 115.431 150.382 115.564 150.11 115.743L150.07 115.768L149.771 115.302L149.81 115.277C150.16 115.048 150.536 114.89 150.935 114.788H150.935ZM150.344 120.203C150.602 120.43 150.981 120.552 151.455 120.552C152.032 120.552 152.706 120.323 153.201 119.91C153.613 119.566 153.901 119.094 153.901 118.52V118.012C153.586 117.982 153.26 117.958 152.941 117.942C152.618 117.925 152.302 117.916 152.009 117.916C151.353 117.916 150.835 118.039 150.483 118.267C150.137 118.491 149.951 118.819 149.951 119.234C149.951 119.65 150.09 119.979 150.344 120.203V120.203ZM158.09 121.067C157.955 121.103 157.807 121.121 157.659 121.121C157.391 121.121 157.176 121.051 157.027 120.92C156.877 120.79 156.796 120.599 156.796 120.361V111.223L156.815 111.209C156.855 111.18 156.898 111.162 156.942 111.152C156.984 111.141 157.026 111.138 157.064 111.138C157.189 111.138 157.301 111.183 157.379 111.287C157.445 111.375 157.484 111.505 157.484 111.685V120.21C157.484 120.321 157.51 120.409 157.562 120.468C157.61 120.521 157.684 120.552 157.784 120.552C157.879 120.552 157.967 120.545 158.05 120.532C158.133 120.518 158.214 120.497 158.294 120.467L158.342 120.449L158.46 120.893L158.434 120.912C158.336 120.981 158.218 121.033 158.09 121.067H158.09ZM160.893 119.97C161.258 120.347 161.773 120.552 162.409 120.552C162.877 120.552 163.303 120.508 163.69 120.42C164.078 120.332 164.427 120.199 164.741 120.02L164.779 119.998L165.078 120.464L165.036 120.488C164.651 120.716 164.241 120.875 163.805 120.976C163.368 121.077 162.904 121.121 162.409 121.121C161.517 121.121 160.806 120.84 160.317 120.322C159.829 119.805 159.566 119.052 159.566 118.107C159.566 117.019 159.864 116.154 160.415 115.56C160.968 114.965 161.773 114.643 162.784 114.643C163.501 114.643 164.078 114.826 164.475 115.165C164.871 115.504 165.087 115.997 165.087 116.618C165.087 117.241 164.821 117.736 164.325 118.076C163.836 118.411 163.125 118.592 162.23 118.592C161.903 118.592 161.565 118.57 161.225 118.533C160.906 118.497 160.587 118.448 160.272 118.39C160.322 119.064 160.538 119.601 160.893 119.97V119.97ZM163.94 115.585C163.649 115.343 163.224 115.212 162.687 115.212C161.96 115.212 161.376 115.454 160.965 115.903C160.558 116.348 160.317 116.998 160.271 117.82C160.58 117.887 160.898 117.936 161.207 117.969C161.56 118.006 161.906 118.023 162.23 118.023C162.912 118.023 163.455 117.891 163.824 117.647C164.187 117.408 164.384 117.058 164.384 116.617C164.384 116.176 164.228 115.825 163.94 115.585V115.585ZM175.541 111.152C175.584 111.142 175.625 111.138 175.662 111.138C175.787 111.138 175.9 111.183 175.978 111.287C176.043 111.375 176.084 111.505 176.084 111.685V121.035L176.063 121.049C176.024 121.078 175.981 121.096 175.936 121.107C175.895 121.117 175.852 121.121 175.816 121.121C175.69 121.121 175.577 121.076 175.5 120.972C175.435 120.884 175.395 120.754 175.395 120.573V119.872C175.138 120.22 174.771 120.522 174.346 120.741C173.885 120.979 173.357 121.121 172.823 121.121C171.937 121.121 171.25 120.822 170.783 120.272C170.31 119.716 170.063 118.902 170.063 117.882C170.063 116.866 170.383 116.056 170.979 115.499C171.571 114.944 172.433 114.643 173.517 114.643C173.806 114.643 174.136 114.65 174.476 114.663C174.781 114.675 175.095 114.692 175.395 114.714V111.223L175.414 111.209C175.454 111.18 175.497 111.162 175.541 111.152V111.152ZM174.704 119.925C175.112 119.587 175.393 119.116 175.393 118.52V115.284C174.771 115.236 174.123 115.212 173.503 115.212C172.642 115.212 171.956 115.461 171.488 115.919C171.02 116.376 170.766 117.044 170.766 117.882C170.766 118.73 170.959 119.404 171.333 119.862C171.698 120.309 172.236 120.552 172.934 120.552C173.523 120.552 174.207 120.337 174.704 119.925ZM183.515 120.262C182.964 120.818 182.164 121.121 181.161 121.121C180.157 121.121 179.356 120.818 178.806 120.262C178.256 119.705 177.956 118.896 177.956 117.882C177.956 116.868 178.256 116.058 178.806 115.502C179.356 114.945 180.157 114.643 181.161 114.643C182.164 114.643 182.964 114.945 183.515 115.502C184.066 116.058 184.364 116.868 184.364 117.882C184.364 118.896 184.066 119.705 183.515 120.262ZM179.319 119.849C179.746 120.304 180.372 120.552 181.161 120.552C181.948 120.552 182.574 120.304 183.001 119.849C183.431 119.391 183.661 118.722 183.661 117.882C183.661 117.042 183.431 116.373 183.001 115.915C182.574 115.46 181.948 115.212 181.161 115.212C180.372 115.212 179.746 115.46 179.319 115.915C178.891 116.372 178.659 117.042 178.659 117.882C178.659 118.722 178.891 119.391 179.319 119.849ZM190.271 112.366C190.759 111.975 191.465 111.764 192.349 111.764C192.846 111.764 193.315 111.837 193.758 111.971C194.199 112.105 194.615 112.301 195.005 112.547L195.043 112.571L194.721 113.167L194.678 113.139C194.326 112.9 193.934 112.716 193.529 112.59C193.116 112.462 192.689 112.396 192.281 112.396C191.64 112.396 191.129 112.543 190.781 112.816C190.436 113.085 190.251 113.479 190.251 113.976C190.251 114.578 190.519 114.98 190.93 115.283C191.348 115.591 191.913 115.799 192.491 116.011L192.492 116.011C193.808 116.492 195.194 116.999 195.194 118.733C195.194 119.487 194.918 120.084 194.407 120.494C193.897 120.901 193.157 121.121 192.226 121.121C191.637 121.121 191.065 121.057 190.548 120.923C190.062 120.796 189.622 120.607 189.262 120.349L189.232 120.326L189.506 119.711L189.554 119.748C189.851 119.98 190.246 120.164 190.694 120.29C191.151 120.42 191.664 120.489 192.184 120.489C192.907 120.489 193.48 120.33 193.87 120.034C194.256 119.741 194.464 119.313 194.464 118.771C194.464 117.486 193.332 117.062 192.151 116.621L192.126 116.611C191.486 116.378 190.838 116.139 190.348 115.76C189.852 115.375 189.519 114.851 189.519 114.052C189.519 113.331 189.784 112.759 190.271 112.366ZM198.103 114.789C198.501 114.687 198.925 114.643 199.371 114.643C200.117 114.643 200.712 114.851 201.124 115.233C201.535 115.616 201.759 116.172 201.759 116.868V121.035L201.738 121.049C201.698 121.078 201.655 121.096 201.611 121.107C201.57 121.117 201.527 121.121 201.49 121.121C201.365 121.121 201.252 121.076 201.174 120.972C201.109 120.884 201.07 120.754 201.07 120.573V119.872C200.814 120.219 200.449 120.52 200.028 120.739C199.571 120.978 199.047 121.121 198.526 121.121C197.863 121.121 197.336 120.947 196.975 120.625C196.612 120.301 196.417 119.829 196.417 119.234C196.417 118.637 196.675 118.164 197.152 117.841C197.626 117.52 198.315 117.347 199.177 117.347C199.49 117.347 199.812 117.356 200.135 117.373C200.45 117.389 200.766 117.413 201.07 117.442V117.031C201.07 116.455 200.904 116 200.601 115.69C200.296 115.38 199.85 115.212 199.288 115.212C198.884 115.212 198.517 115.255 198.183 115.344C197.85 115.431 197.55 115.564 197.277 115.743L197.239 115.769L196.939 115.302L196.977 115.277C197.328 115.048 197.704 114.89 198.103 114.789ZM197.512 120.203C197.771 120.43 198.149 120.552 198.623 120.552C199.199 120.552 199.874 120.323 200.368 119.91C200.781 119.566 201.07 119.094 201.07 118.52V118.012C200.754 117.982 200.428 117.958 200.109 117.942C199.787 117.925 199.471 117.916 199.177 117.916C198.522 117.916 198.003 118.039 197.65 118.267C197.306 118.492 197.118 118.819 197.118 119.234C197.118 119.65 197.258 119.979 197.512 120.203V120.203ZM205.257 121.067C205.122 121.103 204.975 121.121 204.827 121.121C204.559 121.121 204.345 121.051 204.195 120.921C204.045 120.79 203.964 120.599 203.964 120.361V111.223L203.983 111.209C204.022 111.181 204.067 111.162 204.11 111.152C204.152 111.142 204.194 111.138 204.232 111.138C204.356 111.138 204.468 111.183 204.546 111.287C204.613 111.375 204.653 111.505 204.653 111.685V120.21C204.653 120.321 204.678 120.409 204.73 120.468C204.778 120.521 204.851 120.552 204.953 120.552C205.046 120.552 205.135 120.546 205.218 120.532C205.302 120.519 205.381 120.497 205.462 120.467L205.51 120.449L205.629 120.893L205.602 120.912C205.503 120.982 205.386 121.033 205.257 121.067ZM207.662 115.499C208.255 114.944 209.117 114.643 210.201 114.643C210.569 114.643 210.993 114.655 211.425 114.677C211.866 114.698 212.315 114.73 212.725 114.769L212.768 114.772V121.525C212.768 122.302 212.52 122.921 212.061 123.346C211.604 123.77 210.939 124 210.104 124C209.609 124 209.137 123.956 208.693 123.855C208.247 123.754 207.828 123.596 207.435 123.368L207.393 123.343L207.693 122.877L207.731 122.899C208.039 123.078 208.382 123.211 208.761 123.299C209.14 123.387 209.56 123.431 210.02 123.431C210.672 123.431 211.188 123.241 211.539 122.888C211.89 122.536 212.079 122.019 212.079 121.362V119.872C211.822 120.22 211.455 120.522 211.031 120.741C210.571 120.979 210.041 121.121 209.509 121.121C208.621 121.121 207.934 120.822 207.467 120.272C206.994 119.716 206.746 118.902 206.746 117.882C206.746 116.866 207.069 116.056 207.662 115.499ZM211.374 119.912C211.79 119.568 212.079 119.095 212.079 118.52V115.284C211.457 115.236 210.807 115.212 210.187 115.212C209.326 115.212 208.642 115.461 208.174 115.919C207.705 116.376 207.45 117.044 207.45 117.882C207.45 118.73 207.643 119.404 208.018 119.862C208.382 120.309 208.92 120.552 209.618 120.552C210.202 120.552 210.879 120.323 211.374 119.912ZM216.078 114.789C216.476 114.687 216.9 114.643 217.346 114.643C218.092 114.643 218.688 114.851 219.099 115.233C219.51 115.616 219.734 116.172 219.734 116.868V121.035L219.713 121.049C219.673 121.078 219.631 121.096 219.588 121.107C219.545 121.117 219.502 121.121 219.466 121.121C219.34 121.121 219.227 121.076 219.15 120.972C219.085 120.884 219.045 120.754 219.045 120.573V119.872C218.789 120.219 218.424 120.52 218.003 120.739C217.546 120.978 217.022 121.121 216.502 121.121C215.838 121.121 215.311 120.947 214.951 120.625C214.587 120.301 214.392 119.829 214.392 119.234C214.392 118.637 214.651 118.164 215.128 117.841C215.602 117.52 216.291 117.347 217.153 117.347C217.465 117.347 217.788 117.356 218.11 117.373C218.426 117.389 218.742 117.413 219.045 117.442V117.031C219.045 116.455 218.88 116 218.577 115.69C218.272 115.38 217.826 115.212 217.264 115.212C216.859 115.212 216.492 115.255 216.159 115.344C215.825 115.431 215.525 115.564 215.252 115.743L215.214 115.769L214.914 115.302L214.952 115.277C215.303 115.048 215.679 114.89 216.078 114.789ZM215.487 120.203C215.746 120.43 216.124 120.552 216.598 120.552C217.175 120.552 217.849 120.323 218.343 119.91C218.757 119.566 219.045 119.094 219.045 118.52V118.012C218.729 117.982 218.403 117.958 218.084 117.942C217.762 117.925 217.446 117.916 217.153 117.916C216.495 117.916 215.978 118.039 215.625 118.267C215.281 118.492 215.094 118.819 215.094 119.234C215.094 119.65 215.233 119.979 215.487 120.203V120.203ZM227.03 111.152C227.071 111.142 227.114 111.138 227.151 111.138C227.276 111.138 227.389 111.183 227.467 111.287C227.532 111.375 227.571 111.505 227.571 111.685V121.035L227.552 121.049C227.513 121.078 227.468 121.096 227.425 121.107C227.382 121.117 227.341 121.121 227.303 121.121C227.179 121.121 227.066 121.076 226.989 120.972C226.922 120.884 226.882 120.754 226.882 120.574V119.872C226.625 120.22 226.258 120.522 225.835 120.741C225.374 120.979 224.846 121.121 224.312 121.121C223.425 121.121 222.739 120.822 222.271 120.272C221.798 119.716 221.551 118.903 221.551 117.882C221.551 116.866 221.872 116.056 222.466 115.499C223.058 114.944 223.92 114.643 225.004 114.643C225.295 114.643 225.623 114.65 225.963 114.663C226.27 114.675 226.582 114.692 226.882 114.714V111.223L226.901 111.209C226.941 111.181 226.986 111.162 227.03 111.152V111.152ZM226.193 119.925C226.601 119.587 226.882 119.116 226.882 118.52V115.284C226.26 115.236 225.612 115.212 224.99 115.212C224.131 115.212 223.445 115.461 222.977 115.919C222.509 116.376 222.253 117.044 222.253 117.882C222.253 118.73 222.447 119.404 222.821 119.862C223.185 120.309 223.725 120.552 224.423 120.552C225.012 120.552 225.696 120.337 226.193 119.925V119.925ZM235.002 120.262C234.453 120.818 233.651 121.121 232.648 121.121C231.645 121.121 230.845 120.819 230.294 120.262C229.743 119.705 229.445 118.896 229.445 117.882C229.445 116.868 229.743 116.059 230.294 115.502C230.845 114.945 231.645 114.643 232.648 114.643C233.651 114.643 234.453 114.945 235.002 115.502C235.553 116.059 235.853 116.868 235.853 117.882C235.853 118.896 235.553 119.705 235.002 120.262ZM230.808 119.849C231.235 120.304 231.861 120.552 232.648 120.552C233.437 120.552 234.063 120.304 234.49 119.849C234.918 119.391 235.15 118.722 235.15 117.882C235.15 117.042 234.918 116.373 234.49 115.915C234.063 115.46 233.437 115.212 232.648 115.212C231.861 115.212 231.235 115.46 230.808 115.915C230.38 116.373 230.148 117.042 230.148 117.882C230.148 118.722 230.38 119.391 230.808 119.849Z" fill="#0E3A61"/>
</g>
<defs>
<clipPath id="clip0">
<rect width="254" height="124" fill="white"/>
</clipPath>
</defs>
</svg>
