<svg width="27" height="27" viewBox="0 0 27 27" fill="none" xmlns="http://www.w3.org/2000/svg">
<path d="M8.4375 13.5C8.4375 13.2762 8.52639 13.0616 8.68463 12.9034C8.84286 12.7451 9.05747 12.6562 9.28125 12.6562H16.875V7.17188C16.875 5.48438 15.0931 4.21875 13.5 4.21875H5.48438C4.70141 4.21959 3.95076 4.53099 3.39713 5.08463C2.84349 5.63826 2.53209 6.38891 2.53125 7.17188V19.8281C2.53209 20.6111 2.84349 21.3617 3.39713 21.9154C3.95076 22.469 4.70141 22.7804 5.48438 22.7812H13.9219C14.7048 22.7804 15.4555 22.469 16.0091 21.9154C16.5628 21.3617 16.8742 20.6111 16.875 19.8281V14.3438H9.28125C9.05747 14.3438 8.84286 14.2549 8.68463 14.0966C8.52639 13.9384 8.4375 13.7238 8.4375 13.5Z" fill="#505050"/>
<path d="M24.2214 12.9036L20.0027 8.68481C19.8432 8.53325 19.6307 8.45001 19.4107 8.45283C19.1907 8.45564 18.9805 8.5443 18.8249 8.69989C18.6693 8.85548 18.5807 9.06569 18.5778 9.28571C18.575 9.50572 18.6583 9.71814 18.8098 9.87766L21.5879 12.6562H16.875V14.3437H21.5879L18.8098 17.1223C18.7282 17.1999 18.6629 17.293 18.6178 17.3962C18.5727 17.4994 18.5487 17.6106 18.5473 17.7232C18.5459 17.8358 18.567 17.9476 18.6094 18.0519C18.6518 18.1562 18.7147 18.251 18.7944 18.3306C18.874 18.4103 18.9688 18.4731 19.0731 18.5156C19.1774 18.558 19.2892 18.5791 19.4018 18.5777C19.5144 18.5762 19.6256 18.5523 19.7288 18.5072C19.832 18.4621 19.9251 18.3968 20.0027 18.3152L24.2214 14.0964C24.3795 13.9382 24.4684 13.7237 24.4684 13.5C24.4684 13.2763 24.3795 13.0618 24.2214 12.9036Z" fill="#505050"/>
</svg>
