<svg width="35" height="35" viewBox="0 0 35 35" fill="none" xmlns="http://www.w3.org/2000/svg">
<g clip-path="url(#clip0)">
<path d="M34.8859 1.48295C34.8098 0.722078 34.2391 0.151426 33.4783 0.0753391C23.8533 -0.68553 16.9674 3.99382 12.6685 9.85251C10.3098 9.09164 7.76088 9.35795 5.44023 10.6514C3.19567 11.9069 1.33154 14.0373 0.114144 16.6243C-0.15216 17.2329 -0.0380294 17.9177 0.456536 18.3743C0.913058 18.8308 1.63588 18.9069 2.20654 18.6025C4.64132 17.309 7.38045 17.5753 9.01632 19.2112L15.712 25.9069L15.75 25.9449C17.3859 27.5808 17.6522 30.3199 16.3587 32.7547C16.0544 33.3253 16.1685 34.0482 16.587 34.5047C16.8913 34.809 17.2718 34.9612 17.6902 34.9612C17.9185 34.9612 18.1468 34.9232 18.337 34.809C20.9239 33.5916 23.0544 31.6895 24.3098 29.4829C25.6413 27.1623 25.9076 24.6134 25.1087 22.2166C26.8207 20.9612 28.3804 19.5916 29.6739 18.0699C33.7065 13.4666 35.4565 7.87425 34.8859 1.48295ZM5.09784 14.7601C6.73371 13.1623 8.78806 12.1732 10.9565 12.5536C10.3478 13.6188 9.85328 14.684 9.39675 15.7493C8.10328 15.0264 6.61958 14.684 5.09784 14.7601ZM20.2772 29.9014C20.3152 28.3416 19.9728 26.8579 19.2881 25.5645C20.3913 25.1079 21.4565 24.5753 22.4837 24.0047C22.8641 26.1732 21.9131 28.2656 20.2772 29.9014ZM17.2337 23.0916L11.8696 17.7275C14.5707 10.5373 21.2663 2.85251 31.9565 3.04273C32.2989 15.7873 21.7989 21.3036 17.2337 23.0916ZM27.087 7.91229C27.5435 8.36882 27.8098 9.01556 27.8098 9.6623C27.8098 10.309 27.5435 10.9558 27.087 11.4123C26.6304 11.8688 25.9837 12.1351 25.337 12.1351C24.6902 12.1351 24.0435 11.9069 23.587 11.4123C23.1304 10.9177 22.8641 10.309 22.8641 9.6623C22.8641 9.01556 23.1304 8.36882 23.587 7.91229C24.0435 7.45577 24.6902 7.18947 25.337 7.18947C25.9837 7.18947 26.6304 7.45577 27.087 7.91229ZM5.66849 23.7384C3.91849 25.4884 3.84241 28.9884 3.84241 29.6732C3.84241 30.5101 4.52719 31.1949 5.36414 31.1949H5.40219C6.2011 31.1949 9.54893 31.0808 11.2609 29.3688C12.3261 28.3036 12.5544 27.2003 12.5544 26.4775C12.5544 25.4503 12.1359 24.4612 11.337 23.6623C9.4348 21.7221 7.03806 22.3308 5.66849 23.7384ZM9.13045 27.2003C8.75001 27.5808 7.91306 27.8471 7.03806 27.9612C7.19023 27.0862 7.45654 26.2493 7.79893 25.9069C8.06523 25.6406 8.29349 25.4884 8.5598 25.4884C8.75001 25.4884 8.97828 25.6025 9.20654 25.8308C9.4348 26.059 9.54893 26.2873 9.54893 26.4775C9.51088 26.7058 9.32067 27.0101 9.13045 27.2003Z" fill="white"/>
</g>
<defs>
<clipPath id="clip0">
<rect width="35" height="35" fill="white"/>
</clipPath>
</defs>
</svg>
